<?xml version="1.0" encoding="utf-8"?>
<!-- Generator: Adobe Illustrator 19.0.0, SVG Export Plug-In . SVG Version: 6.00 Build 0)  -->
<svg version="1.0" xmlns="http://www.w3.org/2000/svg" xmlns:xlink="http://www.w3.org/1999/xlink" x="0px" y="0px"
	 viewBox="0 0 3144.5 1401.3" enable-background="new 0 0 3144.5 1401.3" xml:space="preserve">
<g id="Layer_3" display="none">
</g>
<g id="Layer_5" display="none">
</g>
<g id="Layer_6">
	<path fill="#009688" d="M2853.9,1132.5v-82.6c0-1.8-1-3.5-2.6-4.5l-71.5-41.3c-1.6-0.9-3.6-0.9-5.2,0l-71.5,41.3
		c-1.6,0.9-2.6,2.6-2.6,4.5v82.6c0,1.8,1,3.5,2.6,4.5l71.5,41.3c1.6,0.9,3.6,0.9,5.2,0l71.5-41.3
		C2852.9,1136.1,2853.9,1134.4,2853.9,1132.5z"/>
	<path opacity="0.14" fill="#009688" d="M2453.7,972.7v-82.6c0-1.8-1-3.5-2.6-4.5l-71.5-41.3c-1.6-0.9-3.6-0.9-5.2,0l-71.5,41.3
		c-1.6,0.9-2.6,2.6-2.6,4.5v82.6c0,1.8,1,3.5,2.6,4.5l71.5,41.3c1.6,0.9,3.6,0.9,5.2,0l71.5-41.3
		C2452.7,976.3,2453.7,974.6,2453.7,972.7z"/>
	<path opacity="0.14" fill="#009688" d="M2350.7,356.7v-82.6c0-1.8-1-3.5-2.6-4.5l-71.5-41.3c-1.6-0.9-3.6-0.9-5.2,0l-71.5,41.3
		c-1.6,0.9-2.6,2.6-2.6,4.5v82.6c0,1.8,1,3.5,2.6,4.5l71.5,41.3c1.6,0.9,3.6,0.9,5.2,0l71.5-41.3
		C2349.7,360.2,2350.7,358.5,2350.7,356.7z"/>
	<path opacity="0.14" fill="#009688" d="M2974.8,570.3v-82.6c0-1.8-1-3.5-2.6-4.5l-71.5-41.3c-1.6-0.9-3.6-0.9-5.2,0l-71.5,41.3
		c-1.6,0.9-2.6,2.6-2.6,4.5v82.6c0,1.8,1,3.5,2.6,4.5l71.5,41.3c1.6,0.9,3.6,0.9,5.2,0l71.5-41.3
		C2973.8,573.9,2974.8,572.2,2974.8,570.3z"/>
	<path fill="#FFFFFF" d="M2974.8,847V611.6c0-5.6-3-10.7-7.8-13.5l-203.8-117.7c-4.8-2.8-10.7-2.8-15.5,0l-203.8,117.7
		c-4.8,2.8-7.8,7.9-7.8,13.5V847c0,5.6,3,10.7,7.8,13.5l203.8,117.7c4.8,2.8,10.7,2.8,15.5,0L2967,860.4
		C2971.8,857.7,2974.8,852.5,2974.8,847z"/>
	<path fill="none" stroke="#009688" stroke-miterlimit="10" d="M2947.1,834.3V624.2c0-3.5-1.9-6.7-4.9-8.4l-182-105.1
		c-3-1.7-6.7-1.7-9.7,0l-182,105.1c-3,1.7-4.9,5-4.9,8.4v210.1c0,3.5,1.9,6.7,4.9,8.4l182,105.1c3,1.7,6.7,1.7,9.7,0l182-105.1
		C2945.2,841,2947.1,837.8,2947.1,834.3z"/>
	<path fill="none" stroke="#FFFFFF" stroke-width="4" stroke-miterlimit="10" d="M3036.8,1142.1V1010c0-3.9-2.1-7.4-5.4-9.4
		l-114.4-66c-3.3-1.9-7.5-1.9-10.8,0l-114.4,66c-3.3,1.9-5.4,5.5-5.4,9.4v132.1c0,3.9,2.1,7.4,5.4,9.4l114.4,66
		c3.3,1.9,7.5,1.9,10.8,0l114.4-66C3034.8,1149.5,3036.8,1145.9,3036.8,1142.1z"/>
	<path fill="none" stroke="#FFFFFF" stroke-width="3" stroke-miterlimit="10" d="M2761.4,1121.1v-82.9c0-1.8-1-3.6-2.6-4.5
		l-71.8-41.5c-1.6-0.9-3.6-0.9-5.2,0l-71.8,41.5c-1.6,0.9-2.6,2.6-2.6,4.5v82.9c0,1.8,1,3.6,2.6,4.5l71.8,41.5
		c1.6,0.9,3.6,0.9,5.2,0l71.8-41.5C2760.4,1124.6,2761.4,1122.9,2761.4,1121.1z"/>
	<path fill="#009688" d="M2588.4,1242.6V1160c0-1.8-1-3.5-2.6-4.5l-71.5-41.3c-1.6-0.9-3.6-0.9-5.2,0l-71.5,41.3
		c-1.6,0.9-2.6,2.6-2.6,4.5v82.6c0,1.8,1,3.5,2.6,4.5l71.5,41.3c1.6,0.9,3.6,0.9,5.2,0l71.5-41.3
		C2587.4,1246.1,2588.4,1244.4,2588.4,1242.6z"/>
	<path fill="none" stroke="#FFFFFF" stroke-width="4" stroke-miterlimit="10" d="M2285.3,1187.7v-132.1c0-3.9-2.1-7.4-5.4-9.4
		l-114.4-66c-3.3-1.9-7.5-1.9-10.8,0l-114.4,66c-3.3,1.9-5.4,5.5-5.4,9.4v132.1c0,3.9,2.1,7.4,5.4,9.4l114.4,66
		c3.3,1.9,7.5,1.9,10.8,0l114.4-66C2283.2,1195.2,2285.3,1191.6,2285.3,1187.7z"/>
	<path fill="none" stroke="#FFFFFF" stroke-width="3" stroke-miterlimit="10" d="M2469.4,1189.1v-82.9c0-1.8-1-3.6-2.6-4.5
		l-71.8-41.5c-1.6-0.9-3.6-0.9-5.2,0l-71.8,41.5c-1.6,0.9-2.6,2.6-2.6,4.5v82.9c0,1.8,1,3.6,2.6,4.5l71.8,41.5
		c1.6,0.9,3.6,0.9,5.2,0l71.8-41.5C2468.4,1192.7,2469.4,1191,2469.4,1189.1z"/>
	<path fill="none" stroke="#FFFFFF" stroke-width="2" stroke-miterlimit="10" d="M2799.6,1229.7v-46.8c0-1.3-0.7-2.6-1.9-3.2
		l-40.5-23.4c-1.2-0.7-2.6-0.7-3.7,0l-40.5,23.4c-1.2,0.7-1.9,1.9-1.9,3.2v46.8c0,1.3,0.7,2.6,1.9,3.2l40.5,23.4
		c1.2,0.7,2.6,0.7,3.7,0l40.5-23.4C2798.9,1232.2,2799.6,1231,2799.6,1229.7z"/>
	<path fill="#FFFFFF" d="M2582.4,1028.3v-91.4c0-1.7-0.9-3.3-2.4-4.2l-79.2-45.7c-1.5-0.9-3.4-0.9-4.9,0l-79.2,45.7
		c-1.5,0.9-2.4,2.5-2.4,4.2v91.4c0,1.7,0.9,3.3,2.4,4.2l79.2,45.7c1.5,0.9,3.4,0.9,4.9,0l79.2-45.7
		C2581.4,1031.7,2582.4,1030,2582.4,1028.3z"/>
	<path fill="#FFFFFF" d="M2708.7,461.6V281.5c0-3.5-1.9-6.8-4.9-8.5l-156-90c-3-1.8-6.8-1.8-9.9,0l-156,90c-3,1.8-4.9,5-4.9,8.5
		v180.1c0,3.5,1.9,6.8,4.9,8.5l156,90c3,1.8,6.8,1.8,9.9,0l156-90C2706.8,468.3,2708.7,465.1,2708.7,461.6z"/>
	<path fill="none" stroke="#FFFFFF" stroke-width="3" stroke-miterlimit="10" d="M2498.3,827.9V598.4c0-3.5-1.9-6.8-4.9-8.5
		l-198.7-114.7c-3-1.8-6.8-1.8-9.9,0l-198.7,114.7c-3.1,1.8-4.9,5-4.9,8.5v229.4c0,3.5,1.9,6.8,4.9,8.5l198.7,114.7
		c3,1.8,6.8,1.8,9.9,0l198.7-114.7C2496.5,834.7,2498.3,831.4,2498.3,827.9z"/>
	<path fill="none" stroke="#009688" stroke-width="3" stroke-miterlimit="10" d="M3005.7,419.2V286.1c0-3.5-1.9-6.8-4.9-8.5
		L2885.5,211c-3-1.8-6.8-1.8-9.9,0l-115.3,66.6c-3,1.8-4.9,5-4.9,8.5v133.1c0,3.5,1.9,6.8,4.9,8.5l115.3,66.6c3,1.8,6.8,1.8,9.9,0
		l115.3-66.6C3003.8,426,3005.7,422.7,3005.7,419.2z"/>
	<path fill="#FFFFFF" d="M2281.5,532.1v-82.3c0-3.1-1.7-6-4.4-7.6l-71.3-41.2c-2.7-1.6-6.1-1.6-8.8,0l-71.3,41.2
		c-2.7,1.6-4.4,4.5-4.4,7.6v82.3c0,3.1,1.7,6,4.4,7.6l71.3,41.2c2.7,1.6,6.1,1.6,8.8,0l71.3-41.2
		C2279.8,538.1,2281.5,535.3,2281.5,532.1z"/>
	<g>
		<g>
			<g>
				<path fill="#009688" d="M2289.8,866.1c-19.4,0-37-25.9-47.1-69.4c-3.5-14.9-5.9-31.2-7.3-48.4c-0.8-10.1-1.2-20.3-1.2-30.5
					c0-10.1,0.4-20.3,1.2-30.5c1.3-17.3,3.8-33.6,7.3-48.4c1.4-5.8,2.8-11.3,4.4-16.4c0.1-0.5,0.5-0.8,0.9-1.1
					c0.4-0.2,0.9-0.3,1.4-0.1c0.7,0.2,1.5,0.4,2.2,0.4c3.8,0,6.9-3.1,6.9-6.9c0-2.9-1.7-5.4-4.4-6.4c-0.5-0.2-0.8-0.5-1-1
					c-0.2-0.4-0.2-1,0-1.4c10-23.5,23-36.4,36.6-36.4c19.3,0,36.9,25.9,47,69.4c3.5,14.9,5.9,31.2,7.3,48.4
					c0.8,10.1,1.2,20.3,1.2,30.5c0,10.1-0.4,20.3-1.2,30.5c-1.3,17.3-3.8,33.6-7.3,48.5c-1.8,7.8-3.9,15-6.1,21.4
					c-0.2,0.5-0.5,0.8-0.9,1c-0.4,0.2-0.9,0.2-1.4,0.1c-2.7-1-5.8-0.2-7.6,1.9c-1.2,1.3-1.8,2.9-1.8,4.6c0,2.8,1.6,5.3,4.2,6.3
					c0.5,0.2,0.8,0.6,1,1c0.2,0.5,0.2,1-0.1,1.4C2314.5,855.2,2302.6,866.1,2289.8,866.1z M2250.1,625.2c-1.4,4.5-2.7,9.4-3.9,14.5
					c-3.4,14.7-5.8,30.8-7.2,47.9c-0.8,10-1.1,20.2-1.1,30.2c0,10,0.4,20.2,1.1,30.2c1.3,17.1,3.7,33.2,7.2,47.9
					c9.6,41.1,26.3,66.6,43.6,66.6c10.8,0,21.6-9.9,30.4-28c-2.9-1.9-4.7-5.2-4.7-8.8c0-2.6,1-5.1,2.7-7c2.3-2.7,6.1-4,9.7-3.4
					c2-5.9,3.8-12.4,5.4-19.5c3.4-14.7,5.8-30.8,7.2-47.9c0.8-10,1.1-20.2,1.1-30.2c0-10-0.4-20.2-1.1-30.2
					c-1.3-17.1-3.7-33.2-7.2-47.9c-9.6-41.1-26.2-66.6-43.5-66.6c-11.8,0-23.3,11.6-32.6,32.7c3.1,1.9,5,5.2,5,9
					c0,5.8-4.7,10.5-10.5,10.5C2251.2,625.3,2250.6,625.3,2250.1,625.2z"/>
			</g>
			<g>
				<path fill="#009688" d="M2382.5,806.3c-13.3,0-29.6-2.8-47.9-8.3c-14.7-4.5-30-10.5-45.5-18c-8.9-4.3-18-9-27-14.2
					c-8.9-5.2-17.6-10.6-25.8-16.2c-14.3-9.8-27.2-20-38.3-30.5c-32.6-30.5-46.2-58.7-36.5-75.4c9.7-16.8,41-19,83.6-6.1
					c14.7,4.5,30.1,10.5,45.6,18c9,4.3,18,9.1,26.9,14.2c8.9,5.2,17.6,10.6,25.8,16.2c4,2.7,8.1,5.6,12.3,8.8
					c0.4,0.3,0.7,0.8,0.7,1.3c0.1,0.5-0.1,1-0.4,1.4c-1.1,1.3-1.8,2.9-1.8,4.6c0,3.8,3.1,6.9,6.9,6.9c2.3,0,4.4-1.1,5.6-2.9
					c0.3-0.4,0.7-0.7,1.2-0.8c0.5-0.1,1,0.1,1.4,0.4c4.3,3.6,8.5,7.3,12.3,10.9c32.6,30.5,46.2,58.7,36.5,75.4
					C2412.7,801.5,2400.2,806.3,2382.5,806.3z M2197.2,632.9c-16.3,0-27.8,4.2-32.6,12.6c-8.6,15,5.1,42.2,35.9,71
					c11.1,10.3,23.8,20.5,37.9,30.1c8.1,5.6,16.7,11,25.6,16.1c8.9,5.1,17.9,9.9,26.7,14.1c15.4,7.4,30.5,13.4,45,17.8
					c40.4,12.2,70.8,10.6,79.5-4.4l0,0c8.6-15-5.1-42.2-35.9-71c-3.4-3.2-7-6.4-10.8-9.6c-1.9,1.9-4.6,3-7.3,3
					c-5.8,0-10.5-4.7-10.5-10.5c0-1.9,0.5-3.8,1.5-5.4c-3.7-2.7-7.2-5.2-10.8-7.6c-8.1-5.6-16.7-11-25.6-16.1
					c-8.8-5.1-17.8-9.8-26.7-14.1c-15.4-7.4-30.5-13.3-45.1-17.8C2226.1,635.6,2210.1,632.9,2197.2,632.9z"/>
			</g>
			<g>
				<path fill="#009688" d="M2197.1,806.3c-17.7,0-30.2-4.8-35.7-14.4c-5.9-10.1-3.3-24.4,7.3-41.3c0.3-0.4,0.7-0.7,1.1-0.8
					c0.5-0.1,1,0,1.4,0.2c1.1,0.7,2.3,1,3.6,1c3.8,0,6.9-3.1,6.9-6.9c0-2-0.9-3.9-2.4-5.3c-0.7-0.6-0.8-1.8-0.2-2.5
					c5.4-6.6,11.8-13.3,18.9-19.9c11.2-10.5,24.1-20.7,38.3-30.5c8.2-5.6,16.9-11.1,25.8-16.2c9-5.2,18.1-10,27-14.2
					c15.5-7.5,30.9-13.5,45.5-18c42.7-13,74-10.7,83.6,6.1v0c9.7,16.8-4,45-36.5,75.4c-11.2,10.5-24.1,20.7-38.3,30.5
					c-8.2,5.6-16.9,11.1-25.8,16.2c-8.9,5.2-18,9.9-27,14.2c-15.5,7.4-30.8,13.5-45.6,18C2226.7,803.6,2210.5,806.3,2197.1,806.3z
					 M2170.9,754c-9.1,15.1-11.3,27.5-6.3,36.2c8.7,15,39.1,16.7,79.5,4.4c14.5-4.4,29.7-10.4,45.1-17.8c8.9-4.2,17.9-9,26.7-14.1
					c8.8-5.1,17.4-10.5,25.6-16.1c14.1-9.7,26.9-19.8,37.9-30.1c30.8-28.8,44.5-56,35.9-71v0c-8.6-15-39.1-16.7-79.5-4.4
					c-14.5,4.4-29.6,10.4-45,17.8c-8.8,4.2-17.8,9-26.7,14.1c-8.8,5.1-17.4,10.5-25.6,16.1c-14.1,9.7-26.9,19.8-37.9,30.1
					c-6.5,6.1-12.4,12.3-17.5,18.4c1.6,1.9,2.4,4.3,2.4,6.7c0,5.8-4.7,10.5-10.5,10.5C2173.4,754.7,2172.1,754.5,2170.9,754z
					 M2361.1,712.5c-5.8,0-10.5-4.7-10.5-10.5c0-2.6,0.9-5,2.7-7c1.9-2.2,4.8-3.5,7.9-3.5c5.8,0,10.5,4.7,10.5,10.5
					c0,2.2-0.7,4.3-1.9,6C2367.8,710.9,2364.5,712.5,2361.1,712.5z M2361.1,695.1c-2,0-3.9,0.8-5.2,2.3c-1.1,1.3-1.8,2.9-1.8,4.6
					c0,3.8,3.1,6.9,6.9,6.9c2.3,0,4.4-1.1,5.6-2.9c0.8-1.2,1.3-2.5,1.3-4C2368,698.2,2364.9,695.1,2361.1,695.1z"/>
			</g>
			<g>
				<path fill="#009688" d="M2251.7,625.3c-1.1,0-2.2-0.2-3.3-0.5c-4.3-1.4-7.2-5.4-7.2-10c0-5.8,4.7-10.5,10.5-10.5
					c1.3,0,2.6,0.2,3.9,0.7c4.1,1.6,6.7,5.4,6.7,9.8C2262.2,620.6,2257.5,625.3,2251.7,625.3z M2251.7,607.9c-3.8,0-6.9,3.1-6.9,6.9
					c0,3,1.9,5.6,4.7,6.5c0.7,0.2,1.5,0.4,2.2,0.4c3.8,0,6.9-3.1,6.9-6.9c0-2.9-1.7-5.4-4.4-6.4
					C2253.4,608,2252.5,607.9,2251.7,607.9z"/>
			</g>
			<g>
				<path fill="#009688" d="M2361.1,712.5c-5.8,0-10.5-4.7-10.5-10.5c0-2.6,0.9-5,2.7-7c1.9-2.2,4.8-3.5,7.9-3.5
					c5.8,0,10.5,4.7,10.5,10.5c0,2.2-0.7,4.3-1.9,6C2367.8,710.9,2364.5,712.5,2361.1,712.5z M2361.1,695.1c-2,0-3.9,0.8-5.2,2.3
					c-1.1,1.3-1.8,2.9-1.8,4.6c0,3.8,3.1,6.9,6.9,6.9c2.3,0,4.4-1.1,5.6-2.9c0.8-1.2,1.3-2.5,1.3-4
					C2368,698.2,2364.9,695.1,2361.1,695.1z"/>
			</g>
			<g>
				<path fill="#009688" d="M2326.1,836.2c-1.4,0-2.8-0.3-4.2-0.9c-3.9-1.6-6.4-5.4-6.4-9.7c0-2.6,1-5.1,2.7-7
					c2.7-3.1,7.5-4.4,11.5-2.9c4.1,1.5,6.8,5.5,6.8,9.8c0,2.2-0.7,4.3-2,6.1C2332.7,834.5,2329.5,836.2,2326.1,836.2z M2326.1,818.8
					c-2,0-3.9,0.8-5.1,2.3c-1.2,1.3-1.8,2.9-1.8,4.6c0,2.8,1.6,5.3,4.2,6.3c3.1,1.3,6.6,0.2,8.3-2.4c0.9-1.2,1.3-2.5,1.3-4
					c0-2.9-1.8-5.5-4.5-6.5C2327.7,818.9,2326.9,818.8,2326.1,818.8z"/>
			</g>
			<g>
				<path fill="#009688" d="M2174.8,754.7c-2,0-3.9-0.6-5.6-1.6c-3.1-1.9-5-5.2-5-8.9c0-5.8,4.7-10.5,10.5-10.5
					c2.5,0,4.9,0.9,6.8,2.5c2.3,2,3.7,4.9,3.7,8C2185.3,750,2180.6,754.7,2174.8,754.7z M2174.8,737.3c-3.8,0-6.9,3.1-6.9,6.9
					c0,2.4,1.2,4.6,3.3,5.9c1.1,0.7,2.4,1.1,3.6,1.1c3.8,0,6.9-3.1,6.9-6.9c0-2-0.9-3.9-2.4-5.3
					C2178,737.9,2176.4,737.3,2174.8,737.3z"/>
			</g>
		</g>
		<g>
			<g>
				<path fill="#009688" d="M2291.6,758c-22.2,0-40.2-18-40.2-40.2c0-22.2,18-40.2,40.2-40.2c22.2,0,40.2,18,40.2,40.2
					C2331.8,740,2313.7,758,2291.6,758z M2291.6,681.2c-20.2,0-36.6,16.4-36.6,36.6c0,20.2,16.4,36.6,36.6,36.6
					c20.2,0,36.6-16.4,36.6-36.6C2328.2,697.6,2311.8,681.2,2291.6,681.2z"/>
			</g>
			<g>
				<path fill="#009688" d="M2291.6,746.3c-15.7,0-28.5-12.8-28.5-28.5c0-15.7,12.8-28.5,28.5-28.5c15.7,0,28.5,12.8,28.5,28.5
					C2320,733.5,2307.3,746.3,2291.6,746.3z M2291.6,692.9c-13.7,0-24.9,11.2-24.9,24.9c0,13.7,11.2,24.9,24.9,24.9
					c13.7,0,24.9-11.2,24.9-24.9C2316.4,704.1,2305.3,692.9,2291.6,692.9z"/>
			</g>
			<g>
				<path fill="#009688" d="M2291.6,735.4c-9.7,0-17.6-7.9-17.6-17.6c0-9.7,7.9-17.6,17.6-17.6c9.7,0,17.6,7.9,17.6,17.6
					C2309.1,727.5,2301.3,735.4,2291.6,735.4z M2291.6,703.8c-7.7,0-14,6.3-14,14c0,7.7,6.3,14,14,14c7.7,0,14-6.3,14-14
					C2305.5,710.1,2299.3,703.8,2291.6,703.8z"/>
			</g>
		</g>
	</g>
	<g>
		<path fill="none" stroke="#009688" stroke-width="2" stroke-miterlimit="10" d="M2918,411.6h-74.9c-13.3,0-21.5-14.4-15.1-25.8
			c0.2-0.3,0.4-0.6,0.5-0.9l14.5-22.6l18.8-29.4c1.2-1.9,1.8-4,1.8-6.2V289h-2.8c-1.7,0-3.1-1.4-3.1-3.1c0-1.7,1.4-3.1,3.1-3.1h39.2
			c1.7,0,3.1,1.4,3.1,3.1c0,1.7-1.4,3.1-3.1,3.1h-2.8v37.7c0,2.2,0.6,4.4,1.8,6.2l18.8,29.4l14.5,22.6c0.2,0.3,0.4,0.6,0.5,0.9
			C2939.5,397.2,2931.3,411.6,2918,411.6z"/>
	</g>
	<path fill="#FFFFFF" stroke="#009688" stroke-miterlimit="10" d="M2918,411.6h-74.9c-13.3,0-21.5-14.4-15.1-25.8
		c0.2-0.3,0.4-0.6,0.5-0.9l14.5-22.6h75l14.5,22.6c0.2,0.3,0.4,0.6,0.5,0.9C2939.5,397.2,2931.3,411.6,2918,411.6z"/>
	<g>
		<path fill="none" stroke="#009688" stroke-width="3" stroke-linecap="round" stroke-linejoin="round" stroke-miterlimit="10" d="
			M2628.3,371.5c0,21.4-7.9,41-20.9,56c-11.5,13.3-27.1,23-44.7,27.2c-4.9-1.1-9.6-2.7-14-4.7h0c-1.4-0.6-2.7-1.2-4.1-1.9
			c-0.6,0.3-1.1,0.6-1.7,0.8c-0.8,0.4-1.6,0.7-2.4,1.1h0v0c-5,2.2-10.3,3.9-15.8,5c-18.4-4-34.5-13.8-46.4-27.5
			c-13-15-20.9-34.6-20.9-56c0-22,8.3-42,21.9-57.1c11.8-13.1,27.6-22.6,45.4-26.4h0c5.5,1.2,10.7,2.9,15.8,5v0h0
			c0.8,0.3,1.6,0.7,2.4,1.1c0.6,0.3,1.1,0.5,1.7,0.8h0c1.3-0.7,2.7-1.3,4-1.9h0c4.5-1.9,9.2-3.5,14-4.7
			c17.2,4.1,32.4,13.3,43.8,26.1C2620.1,329.5,2628.3,349.5,2628.3,371.5z"/>
		<path fill="none" stroke="#009688" stroke-width="3" stroke-linecap="round" stroke-linejoin="round" stroke-miterlimit="10" d="
			M2592.1,371.5c0,13.2-3,25.7-8.4,36.9c-0.2,0.4-0.3,0.7-0.5,1.1c-8.3,16.7-21.9,30.3-38.7,38.6c-0.6,0.3-1.1,0.6-1.7,0.8
			c-0.8,0.4-1.6,0.7-2.4,1.1h0v0c-5,2.2-10.3,3.9-15.8,5c-18.4-4-34.5-13.8-46.4-27.5c-13-15-20.9-34.6-20.9-56
			c0-22,8.3-42,21.9-57.1c11.8-13.1,27.6-22.6,45.4-26.4h0c5.5,1.2,10.7,2.9,15.8,5v0h0c0.8,0.3,1.6,0.7,2.4,1.1
			c0.6,0.3,1.1,0.5,1.7,0.8h0c16.1,8,29.4,21,37.8,36.9c0.2,0.3,0.4,0.7,0.5,1C2588.8,344.4,2592.1,357.6,2592.1,371.5z"/>
		<path fill="none" stroke="#009688" stroke-width="3" stroke-linecap="round" stroke-linejoin="round" stroke-miterlimit="10" d="
			M2628.3,371.5c0,21.4-7.9,41-20.9,56c-11.5,13.3-27.1,23-44.7,27.2c-4.9-1.1-9.6-2.7-14-4.7h0c-1.4-0.6-2.7-1.2-4.1-1.9
			c-0.6-0.3-1.1-0.6-1.7-0.9c-16-8.4-28.9-21.6-36.9-37.8c-0.4-0.8-0.8-1.6-1.2-2.5c-4.9-10.8-7.7-22.8-7.7-35.5
			c0-13.4,3.1-26,8.5-37.3c0.4-0.8,0.8-1.6,1.2-2.4c8.1-15.4,20.7-28,36.1-36.1c0.6-0.3,1.1-0.6,1.7-0.9h0c1.3-0.7,2.7-1.3,4-1.9h0
			c4.5-1.9,9.2-3.5,14-4.7c17.2,4.1,32.4,13.3,43.8,26.1C2620.1,329.5,2628.3,349.5,2628.3,371.5z"/>
		<path fill="none" stroke="#009688" stroke-width="3" stroke-linecap="round" stroke-linejoin="round" stroke-miterlimit="10" d="
			M2562.7,288.3c-4.9,1.1-9.6,2.7-14,4.7h0c-1.4,0.6-2.7,1.2-4,1.9h0c-0.6-0.3-1.1-0.6-1.7-0.8c-0.8-0.4-1.6-0.7-2.4-1.1h0v0
			c-5-2.2-10.3-3.9-15.8-5c0.4-0.1,0.8-0.2,1.2-0.3c5.5-1.1,11.1-1.7,16.9-1.7c5.8,0,11.5,0.6,16.9,1.7
			C2560.8,287.9,2561.7,288.1,2562.7,288.3z"/>
		<path fill="none" stroke="#009688" stroke-width="3" stroke-linecap="round" stroke-linejoin="round" stroke-miterlimit="10" d="
			M2606.4,314.4c-6.2,6.9-13.6,12.8-21.7,17.4c-0.6,0.4-1.2,0.7-1.9,1c-11.9,6.3-25.6,9.9-40,9.9c-13.4,0-26-3.1-37.3-8.5
			c-1.5-0.8-3.1-1.6-4.6-2.4c-8.2-4.6-15.5-10.5-21.8-17.4c11.8-13.1,27.6-22.6,45.4-26.4h0c5.5,1.2,10.7,2.9,15.8,5v0h0
			c0.8,0.3,1.6,0.7,2.4,1.1c0.6,0.3,1.1,0.5,1.7,0.8h0c1.3-0.7,2.7-1.3,4-1.9h0c4.5-1.9,9.2-3.5,14-4.7
			C2579.9,292.4,2595,301.7,2606.4,314.4z"/>
		<path fill="none" stroke="#009688" stroke-width="3" stroke-linecap="round" stroke-linejoin="round" stroke-miterlimit="10" d="
			M2562.7,454.7c-1,0.2-1.9,0.4-2.9,0.6c-5.5,1.1-11.2,1.7-16.9,1.7c-5.8,0-11.5-0.6-16.9-1.7c-0.4-0.1-0.8-0.2-1.2-0.3
			c5.5-1.2,10.7-2.9,15.8-5v0h0c0.8-0.3,1.6-0.7,2.4-1.1c0.6-0.3,1.1-0.5,1.7-0.8c1.3,0.7,2.7,1.3,4.1,1.9h0
			C2553.1,451.9,2557.8,453.5,2562.7,454.7z"/>
		<path fill="none" stroke="#009688" stroke-width="3" stroke-linecap="round" stroke-linejoin="round" stroke-miterlimit="10" d="
			M2607.4,427.5c-11.5,13.3-27.1,23-44.7,27.2c-4.9-1.1-9.6-2.7-14-4.7h0c-1.4-0.6-2.7-1.2-4.1-1.9c-0.6,0.3-1.1,0.6-1.7,0.8
			c-0.8,0.4-1.6,0.7-2.4,1.1h0v0c-5,2.2-10.3,3.9-15.8,5c-18.4-4-34.5-13.8-46.4-27.5c6.2-7.2,13.6-13.3,21.9-18.1
			c1.5-0.9,3-1.7,4.6-2.5c11.5-5.7,24.4-9,38.1-9c14.8,0,28.7,3.8,40.9,10.4c0.6,0.3,1.3,0.7,1.9,1.1
			C2593.8,414.2,2601.2,420.4,2607.4,427.5z"/>
		
			<line fill="none" stroke="#009688" stroke-width="3" stroke-linecap="round" stroke-linejoin="round" stroke-miterlimit="10" x1="2457.4" y1="371.5" x2="2628.3" y2="371.5"/>
		
			<polyline fill="none" stroke="#009688" stroke-width="3" stroke-linecap="round" stroke-linejoin="round" stroke-miterlimit="10" points="
			2542.8,294.1 2542.8,295.8 2542.8,342.8 2542.8,371.5 2542.8,398 2542.8,447.2 2542.8,448.9 		"/>
	</g>
	
		<polygon fill="none" stroke="#009688" stroke-width="3" stroke-linecap="round" stroke-linejoin="round" stroke-miterlimit="10" points="
		2862.8,688.4 2796.3,688.4 2796.3,621.9 2714.5,621.9 2714.5,688.4 2648,688.4 2648,770.2 2714.5,770.2 2714.5,836.7 2796.3,836.7 
		2796.3,770.2 2862.8,770.2 	"/>
	<g>
		<g>
			<g>
				<path fill="#009688" d="M2227.8,452.8c-1.5-0.2-2.9-0.2-4.2-0.2c-10.6,0-15.6,4.6-21.4,11.5c-5.8-6.9-10.9-11.5-21.5-11.5
					c-1.3,0-2.7,0-4.2,0.2c-9.2,0.9-19.7,9.3-21,25.4v5.3c0.5,6.7,3,14.2,8.6,22.4c0.4,0.7,0.9,1.4,1.4,2.1
					c7.2,10,18.9,21.2,36.7,33.7c18.6-13.1,30.5-24.7,37.6-35c0.5-0.7,1-1.4,1.4-2.1c4.9-7.7,7.2-14.7,7.7-21.1v-5.3
					C2247.5,462.1,2236.9,453.7,2227.8,452.8z M2226.8,506.7c-5.9,7.1-14.2,14.5-24.8,22.4c-9.9-7.3-17.8-14.4-23.7-21.1
					c-0.6-0.7-1.2-1.4-1.7-2.1c-6.7-8.1-10.4-15.7-11.1-22.8v-4.5c1-10.7,7.6-15.2,11.8-15.6c1.2-0.1,2.2-0.2,3.2-0.2
					c6.1,0,8.6,1.8,13.6,7.8l7.9,9.4l7.8-9.4c5-6,7.6-7.8,13.6-7.8c1,0,2.1,0,3.2,0.2c4.2,0.4,10.8,4.9,11.8,15.6v4.5
					c-0.6,6.7-3.9,13.8-10,21.5C2228,505.3,2227.5,506,2226.8,506.7z"/>
			</g>
		</g>
		<g>
			<path fill="#009688" d="M2193.9,507.9c-0.5,0-0.9-0.3-1-0.8l-5-18.4l-5.7,18.5c-0.1,0.4-0.5,0.7-1,0.7h-34c-0.6,0-1-0.5-1-1
				c0-0.6,0.5-1,1-1h33.2l6.5-21.2c0.1-0.4,0.6-0.6,1-0.7c0.5,0,0.9,0.3,1,0.8l4.9,18.1l2.8-10.9c0.1-0.5,0.5-0.8,1-0.8
				c0.5-0.1,0.9,0.3,1,0.8l2.4,8.7l4-15.9c0.1-0.5,0.5-0.8,1-0.8h0c0.5,0,0.9,0.3,1,0.8l4.8,19.1l5.1-2.3c0.3-0.1,0.6-0.1,0.8,0
				c0.3,0.1,0.5,0.3,0.6,0.6l1,2.5h36.3c0.6,0,1,0.5,1,1c0,0.6-0.5,1-1,1h-37c-0.4,0-0.8-0.3-1-0.7l-0.9-2.1l-5.3,2.4
				c-0.3,0.1-0.6,0.1-0.9,0c-0.3-0.1-0.5-0.4-0.6-0.7l-4.1-16.3l-3.9,15.7c-0.1,0.5-0.5,0.8-1,0.8c-0.4-0.1-0.9-0.3-1-0.8l-2.4-8.7
				l-2.8,10.9C2194.8,507.6,2194.3,507.9,2193.9,507.9C2193.9,507.9,2193.9,507.9,2193.9,507.9z"/>
		</g>
	</g>
	<g>
		<path fill="none" stroke="#FFFFFF" stroke-linecap="round" stroke-linejoin="round" stroke-miterlimit="10" d="M2568.7,912
			l-64.6-37.3c-3.6-2.1-8-2.1-11.6,0l-84.7,48.9c-3.6,2.1-5.8,5.9-5.8,10v97.9c0,4.1,2.2,8,5.8,10l17.9,10.3"/>
		<circle fill="#FFFFFF" cx="2568.7" cy="912" r="4.6"/>
		<circle fill="#FFFFFF" cx="2425.9" cy="1051.9" r="4.6"/>
	</g>
	<g>
		<g>
			<g>
				<rect x="2446.5" y="979.3" fill="#009688" width="17.9" height="3.3"/>
			</g>
			<g>
				<rect x="2446.5" y="982.6" fill="#009688" width="17.9" height="3.3"/>
			</g>
		</g>
		<g opacity="0.33">
			<path fill="#009688" d="M2528.2,994.6h-50.1v-24h50.1c6.6,0,12,5.4,12,12c0,3.3-1.4,6.3-3.5,8.5
				C2534.5,993.3,2531.5,994.6,2528.2,994.6z"/>
		</g>
		<g>
			<path fill="#009688" d="M2463.2,995.8v-26.4l65,0c7.3,0,13.2,5.9,13.2,13.2c0,3.5-1.4,6.8-3.9,9.3c-2.5,2.5-5.8,3.9-9.3,3.9
				L2463.2,995.8z M2465.6,971.8l0,21.7l62.6,0c2.9,0,5.6-1.1,7.7-3.2c2.1-2.1,3.2-4.8,3.2-7.7c0-6-4.9-10.8-10.8-10.8L2465.6,971.8
				z"/>
		</g>
		<g>
			<rect x="2524.3" y="970.6" fill="#009688" width="1.2" height="7.5"/>
		</g>
		<g>
			<rect x="2519.9" y="970.6" fill="#009688" width="1.2" height="7.5"/>
		</g>
		<g>
			<rect x="2515.5" y="970.6" fill="#009688" width="1.2" height="7.5"/>
		</g>
		<g>
			<rect x="2511.1" y="970.6" fill="#009688" width="1.2" height="7.5"/>
		</g>
		<g>
			<rect x="2506.7" y="970.6" fill="#009688" width="1.2" height="7.5"/>
		</g>
		<g>
			<rect x="2502.3" y="970.6" fill="#009688" width="1.2" height="7.5"/>
		</g>
		<g>
			<rect x="2498" y="970.6" fill="#009688" width="1.2" height="7.5"/>
		</g>
		<g>
			<rect x="2493.6" y="970.6" fill="#009688" width="1.2" height="7.5"/>
		</g>
		<g>
			<rect x="2489.2" y="970.6" fill="#009688" width="1.2" height="7.5"/>
		</g>
		<g>
			<rect x="2484.8" y="970.6" fill="#009688" width="1.2" height="7.5"/>
		</g>
		<g>
			<rect x="2463.2" y="962.5" fill="#009688" width="2.4" height="40.1"/>
		</g>
		<g>
			<rect x="2445.3" y="974.3" fill="#009688" width="2.4" height="16.9"/>
		</g>
		<g>
			<polygon fill="#009688" points="2540.2,981.4 2567.6,982.6 2540.2,983.8 			"/>
		</g>
	</g>
	<g>
		<g>
			<polygon fill="#FFFFFF" points="2350.2,1028.3 2072.8,861.7 2073.6,860.2 2351,1026.9 			"/>
		</g>
		<g>
			<path fill="#FFFFFF" d="M2065.9,863.5c-2.8-1.6-3.8-5.2-2.2-8c1.6-2.8,5.2-3.8,8-2.2c2.8,1.6,3.8,5.2,2.2,8
				C2072.3,864.2,2068.7,865.2,2065.9,863.5z M2071,854.8c-2-1.2-4.6-0.5-5.7,1.5c-1.2,2-0.5,4.6,1.5,5.7c2,1.2,4.6,0.5,5.7-1.5
				C2073.7,858.5,2073,856,2071,854.8z"/>
		</g>
		<g>
			<path fill="#FFFFFF" d="M2352,1035.2c-2.8-1.6-3.8-5.2-2.2-8c1.6-2.8,5.2-3.8,8-2.2c2.8,1.6,3.8,5.2,2.2,8
				C2358.4,1035.9,2354.8,1036.8,2352,1035.2z M2357.1,1026.5c-2-1.2-4.6-0.5-5.7,1.5s-0.5,4.6,1.5,5.7c2,1.2,4.6,0.5,5.7-1.5
				S2359.1,1027.6,2357.1,1026.5z"/>
		</g>
	</g>
	<g>
		<g>
			<path fill="#FFFFFF" d="M2386,250.6c-1.5-0.9-2.8-2.1-3.7-3.7c-1.4-2.4-1.7-5.1-1-7.8c0.7-2.6,2.4-4.8,4.8-6.2
				c2.4-1.4,5.1-1.7,7.8-1c2.6,0.7,4.8,2.4,6.2,4.8c2.8,4.9,1.1,11.2-3.7,14l0,0C2393,252.5,2389.1,252.4,2386,250.6z M2394,236.8
				c-0.4-0.3-0.9-0.4-1.4-0.6c-1.5-0.4-3-0.2-4.4,0.6c-1.3,0.8-2.3,2-2.7,3.5c-0.4,1.5-0.2,3,0.6,4.4c1.6,2.7,5.1,3.7,7.9,2.1
				c2.7-1.6,3.7-5.1,2.1-7.9C2395.6,238,2394.9,237.3,2394,236.8z"/>
		</g>
		<g>
			<path fill="#FFFFFF" d="M2410.9,236.2c-1.5-0.9-2.8-2.2-3.7-3.7c-1.4-2.4-1.7-5.1-1-7.8c0.7-2.6,2.4-4.8,4.8-6.2
				c2.4-1.4,5.1-1.7,7.8-1c2.6,0.7,4.8,2.4,6.2,4.8c1.4,2.4,1.7,5.1,1,7.8c-0.7,2.6-2.4,4.8-4.8,6.2l0,0c-2.4,1.4-5.1,1.7-7.8,1
				C2412.5,237,2411.7,236.7,2410.9,236.2z M2418.9,222.4c-0.4-0.3-0.9-0.4-1.4-0.6c-1.5-0.4-3-0.2-4.4,0.6c-1.3,0.8-2.3,2-2.7,3.5
				c-0.4,1.5-0.2,3,0.6,4.4c0.8,1.3,2,2.3,3.5,2.7c1.5,0.4,3,0.2,4.4-0.6l0,0c2.7-1.6,3.7-5.1,2.1-7.9
				C2420.5,223.6,2419.8,222.9,2418.9,222.4z"/>
		</g>
		<g>
			<path fill="#FFFFFF" d="M2435.8,221.8c-1.5-0.9-2.8-2.1-3.7-3.7c-1.4-2.4-1.7-5.1-1-7.8c0.7-2.6,2.4-4.8,4.8-6.2
				c2.4-1.4,5.1-1.7,7.8-1c2.6,0.7,4.8,2.4,6.2,4.8c2.8,4.9,1.1,11.2-3.7,14C2442.8,223.7,2438.9,223.6,2435.8,221.8z M2443.9,208
				c-1.7-1-3.9-1.1-5.8,0c-1.3,0.8-2.3,2-2.7,3.5c-0.4,1.5-0.2,3,0.6,4.4c1.6,2.7,5.1,3.7,7.9,2.1c2.7-1.6,3.7-5.1,2.1-7.9
				C2445.4,209.2,2444.7,208.5,2443.9,208z"/>
		</g>
		<g>
			<path fill="#FFFFFF" d="M2460.8,207.4c-1.5-0.9-2.8-2.1-3.7-3.7c-2.8-4.9-1.1-11.2,3.7-14c4.9-2.8,11.2-1.1,14,3.7
				c1.4,2.4,1.7,5.1,1,7.8c-0.7,2.6-2.4,4.8-4.8,6.2l0,0C2467.7,209.4,2463.8,209.2,2460.8,207.4z M2468.8,193.6
				c-1.7-1-3.9-1.1-5.8,0c-2.7,1.6-3.7,5.1-2.1,7.9c1.6,2.8,5.1,3.7,7.9,2.1c1.3-0.8,2.3-2,2.7-3.5c0.4-1.5,0.2-3-0.6-4.4
				C2470.3,194.8,2469.6,194.1,2468.8,193.6z"/>
		</g>
		<g>
			<path fill="#FFFFFF" d="M2485.7,193.1c-1.5-0.9-2.8-2.2-3.7-3.7c-1.4-2.4-1.7-5.1-1-7.8c0.7-2.6,2.4-4.8,4.8-6.2
				c2.4-1.4,5.1-1.7,7.8-1c2.6,0.7,4.8,2.4,6.2,4.8c1.4,2.4,1.7,5.1,1,7.8c-0.7,2.6-2.4,4.8-4.8,6.2l0,0c-2.4,1.4-5.1,1.7-7.8,1
				C2487.3,193.9,2486.4,193.5,2485.7,193.1z M2493.7,179.2c-0.4-0.3-0.9-0.4-1.4-0.6c-1.5-0.4-3-0.2-4.4,0.6
				c-2.7,1.6-3.7,5.1-2.1,7.9c0.8,1.3,2,2.3,3.5,2.7c1.5,0.4,3,0.2,4.4-0.6l0,0c1.3-0.8,2.3-2,2.7-3.5c0.4-1.5,0.2-3-0.6-4.4
				C2495.3,180.4,2494.5,179.7,2493.7,179.2z"/>
		</g>
		<g>
			<path fill="#FFFFFF" d="M2510.6,178.7c-1.5-0.9-2.8-2.2-3.7-3.7c-2.8-4.9-1.1-11.2,3.7-14c4.9-2.8,11.2-1.1,14,3.7
				c1.4,2.4,1.7,5.1,1,7.8c-0.7,2.6-2.4,4.8-4.8,6.2l0,0c-2.4,1.4-5.1,1.7-7.8,1C2512.2,179.5,2511.3,179.1,2510.6,178.7z
				 M2518.6,164.9c-1.7-1-3.9-1.1-5.8,0c-2.7,1.6-3.7,5.1-2.1,7.9c0.8,1.3,2,2.3,3.5,2.7c1.5,0.4,3,0.2,4.4-0.6l0,0
				c2.7-1.6,3.7-5.1,2.1-7.9C2520.2,166.1,2519.4,165.3,2518.6,164.9z"/>
		</g>
	</g>
	<g>
		<polygon fill="#FFFFFF" points="2546.5,1115.2 2538.5,1098 2527.6,1116.9 		"/>
		<polygon fill="#FFFFFF" points="2566.6,1126.8 2558.6,1109.6 2547.7,1128.5 		"/>
		<polygon fill="#FFFFFF" points="2586.7,1138.4 2578.7,1121.2 2567.8,1140.1 		"/>
		<polygon fill="#FFFFFF" points="2606.8,1150 2598.8,1132.8 2587.9,1151.7 		"/>
		<polygon fill="#FFFFFF" points="2626.9,1161.6 2618.9,1144.4 2608,1163.3 		"/>
		<polygon fill="#FFFFFF" points="2647,1173.2 2639,1156 2628.1,1174.9 		"/>
		<polygon fill="#FFFFFF" points="2667.1,1184.8 2659.1,1167.6 2648.2,1186.5 		"/>
		<polygon fill="#FFFFFF" points="2687.2,1196.4 2679.2,1179.2 2668.3,1198.1 		"/>
	</g>
	<g>
		<polygon fill="#FFFFFF" points="2494.1,557.5 2500.5,571.3 2509.3,556.1 		"/>
		<polygon fill="#FFFFFF" points="2478,548.2 2484.4,562 2493.2,546.8 		"/>
		<polygon fill="#FFFFFF" points="2461.9,538.9 2468.3,552.7 2477,537.5 		"/>
		<polygon fill="#FFFFFF" points="2445.8,529.6 2452.2,543.4 2460.9,528.2 		"/>
		<polygon fill="#FFFFFF" points="2429.7,520.3 2436.1,534.1 2444.8,518.9 		"/>
		<polygon fill="#FFFFFF" points="2413.6,511 2420,524.8 2428.7,509.6 		"/>
		<polygon fill="#FFFFFF" points="2397.5,501.7 2403.9,515.5 2412.6,500.3 		"/>
		<polygon fill="#FFFFFF" points="2381.3,492.4 2387.7,506.2 2396.5,491 		"/>
	</g>
	<g>
		<path fill="none" stroke="#FFFFFF" stroke-width="2" stroke-linecap="round" stroke-linejoin="round" stroke-miterlimit="10" d="
			M2199.1,1107.2l-51.6,51.6c-5.2,5.2-13.1,6.3-19.4,3.1l-10.4,10.4l-7.4-7.4l10.4-10.4c-3.1-6.3-2.1-14.2,3.1-19.4l51.6-51.6
			L2199.1,1107.2z"/>
		<path fill="none" stroke="#FFFFFF" stroke-width="2" stroke-linecap="round" stroke-linejoin="round" stroke-miterlimit="10" d="
			M2199.1,1107.2l-23.7-23.7l20.8-20.8c2.6-2.6,6.9-2.6,9.5,0l14.2,14.2c2.6,2.6,2.6,6.9,0,9.5L2199.1,1107.2z"/>
		
			<line fill="none" stroke="#FFFFFF" stroke-width="2" stroke-linecap="round" stroke-linejoin="round" stroke-miterlimit="10" x1="2167.3" y1="1075.4" x2="2206.9" y2="1115"/>
		
			<line fill="none" stroke="#FFFFFF" stroke-width="2" stroke-linecap="round" stroke-linejoin="round" stroke-miterlimit="10" x1="2167.7" y1="1091.1" x2="2176.5" y2="1099.9"/>
		
			<line fill="none" stroke="#FFFFFF" stroke-width="2" stroke-linecap="round" stroke-linejoin="round" stroke-miterlimit="10" x1="2158.6" y1="1100.2" x2="2167.3" y2="1109"/>
		
			<line fill="none" stroke="#FFFFFF" stroke-width="2" stroke-linecap="round" stroke-linejoin="round" stroke-miterlimit="10" x1="2149.5" y1="1109.3" x2="2158.2" y2="1118.1"/>
		
			<line fill="none" stroke="#FFFFFF" stroke-width="2" stroke-linecap="round" stroke-linejoin="round" stroke-miterlimit="10" x1="2140.4" y1="1118.4" x2="2149.1" y2="1127.2"/>
		
			<line fill="none" stroke="#FFFFFF" stroke-width="2" stroke-linecap="round" stroke-linejoin="round" stroke-miterlimit="10" x1="2131.3" y1="1127.5" x2="2140" y2="1136.3"/>
		<path fill="none" stroke="#FFFFFF" stroke-width="2" stroke-linecap="round" stroke-linejoin="round" stroke-miterlimit="10" d="
			M2101.1,1199.6L2101.1,1199.6c-3-3-3.5-7.7-1.2-11.3l7.6-11.7l7.6,11.7c2.3,3.6,1.8,8.3-1.2,11.3l0,0
			C2110.4,1203.1,2104.7,1203.1,2101.1,1199.6z"/>
	</g>
	<g>
		<g>
			<path fill="#FFFFFF" d="M1872.3,812.9c-0.1,0-0.2,0-0.3,0l0,0c-2.8-0.1-4.9-2.5-4.8-5.2c0.1-2.8,2.5-4.9,5.2-4.8
				c2.8,0.1,4.9,2.5,4.8,5.2C1877.2,810.8,1875,812.9,1872.3,812.9z M1872.2,811.3c1.8,0.1,3.4-1.3,3.5-3.2c0.1-1.8-1.3-3.4-3.2-3.5
				c-1.8-0.1-3.4,1.3-3.5,3.2C1868.9,809.6,1870.3,811.2,1872.2,811.3L1872.2,811.3z"/>
		</g>
		<g>
			<path fill="#FFFFFF" d="M1887.8,800.4c-0.1,0-0.1,0-0.2,0c-0.8,0-1.6-0.4-2.2-1c-0.6-0.6-0.9-1.4-0.8-2.3c0.1-1.7,1.6-3.1,3.3-3
				c0.8,0,1.6,0.4,2.2,1c0.6,0.6,0.9,1.4,0.8,2.3c0,0.8-0.4,1.6-1,2.2C1889.3,800.1,1888.6,800.4,1887.8,800.4z M1887.8,794.9
				c-0.6,0-1.1,0.2-1.6,0.6c-0.5,0.4-0.7,1-0.8,1.6c0,0.6,0.2,1.2,0.6,1.7c0.4,0.5,1,0.7,1.6,0.8c0.6,0,1.2-0.2,1.7-0.6
				c0.5-0.4,0.7-1,0.8-1.6c0-0.6-0.2-1.2-0.6-1.7c-0.4-0.5-1-0.7-1.6-0.8C1887.9,794.9,1887.8,794.9,1887.8,794.9z"/>
		</g>
		<g>
			<path fill="#FFFFFF" d="M1904.5,842c-0.1,0-0.1,0-0.2,0l0,0c-0.8,0-1.6-0.4-2.2-1c-0.6-0.6-0.9-1.4-0.8-2.3c0-0.8,0.4-1.6,1-2.2
				c0.6-0.6,1.4-0.9,2.3-0.8c0.8,0,1.6,0.4,2.2,1c0.6,0.6,0.9,1.4,0.8,2.3c0,0.8-0.4,1.6-1,2.2C1906,841.7,1905.3,842,1904.5,842z
				 M1904.4,841.2c0.6,0,1.2-0.2,1.7-0.6c0.5-0.4,0.7-1,0.8-1.6c0-0.6-0.2-1.2-0.6-1.7c-0.4-0.5-1-0.7-1.6-0.8
				c-0.6,0-1.2,0.2-1.7,0.6c-0.5,0.4-0.7,1-0.8,1.6c0,0.6,0.2,1.2,0.6,1.7C1903.2,840.9,1903.7,841.1,1904.4,841.2L1904.4,841.2z"/>
		</g>
		<g>
			<path fill="#FFFFFF" d="M1874.7,852.6c-0.1,0-0.1,0-0.2,0c-1.7-0.1-3.1-1.6-3-3.3c0.1-1.7,1.6-3.1,3.3-3c0.8,0,1.6,0.4,2.2,1
				c0.6,0.6,0.9,1.4,0.8,2.3c0,0.8-0.4,1.6-1,2.2C1876.2,852.3,1875.5,852.6,1874.7,852.6z M1874.7,847.1c-1.2,0-2.3,1-2.3,2.2
				c-0.1,1.3,0.9,2.4,2.2,2.5c0.6,0,1.2-0.2,1.7-0.6c0.5-0.4,0.7-1,0.8-1.6c0-0.6-0.2-1.2-0.6-1.7c-0.4-0.5-1-0.7-1.6-0.8
				C1874.8,847.1,1874.7,847.1,1874.7,847.1z"/>
		</g>
		<g>
			<path fill="#FFFFFF" d="M1853,860.9c-0.1,0-0.1,0-0.2,0c-0.8,0-1.6-0.4-2.2-1c-0.6-0.6-0.9-1.4-0.8-2.3c0-0.8,0.4-1.6,1-2.2
				c0.6-0.6,1.4-0.9,2.3-0.8c0.8,0,1.6,0.4,2.2,1c0.6,0.6,0.9,1.4,0.8,2.3c0,0.8-0.4,1.6-1,2.2
				C1854.6,860.6,1853.8,860.9,1853,860.9z M1853,855.4c-0.6,0-1.1,0.2-1.6,0.6c-0.5,0.4-0.7,1-0.8,1.6c0,0.6,0.2,1.2,0.6,1.7
				c0.4,0.5,1,0.7,1.6,0.8c0.6,0,1.2-0.2,1.7-0.6c0.5-0.4,0.7-1,0.8-1.6c0-0.6-0.2-1.2-0.6-1.7c-0.4-0.5-1-0.7-1.6-0.8
				C1853.1,855.4,1853.1,855.4,1853,855.4z"/>
		</g>
		<g>
			<path fill="#FFFFFF" d="M1844.5,841.4c-0.1,0-0.1,0-0.2,0l0,0c-0.8,0-1.6-0.4-2.2-1c-0.6-0.6-0.9-1.4-0.8-2.3
				c0-0.8,0.4-1.6,1-2.2c0.6-0.6,1.4-0.9,2.3-0.8c1.7,0.1,3.1,1.6,3,3.3C1847.6,840.1,1846.2,841.4,1844.5,841.4z M1844.4,840.6
				c1.3,0.1,2.4-0.9,2.5-2.2c0.1-1.3-0.9-2.4-2.2-2.5c-0.6,0-1.2,0.2-1.7,0.6c-0.5,0.4-0.7,1-0.8,1.6c0,0.6,0.2,1.2,0.6,1.7
				C1843.2,840.3,1843.7,840.6,1844.4,840.6L1844.4,840.6z"/>
		</g>
		<g>
			<path fill="#FFFFFF" d="M1854.6,815.3c-0.1,0-0.1,0-0.2,0c-1.7-0.1-3.1-1.6-3-3.3c0.1-1.7,1.6-3.1,3.3-3c0.8,0,1.6,0.4,2.2,1
				c0.6,0.6,0.9,1.4,0.8,2.3c0,0.8-0.4,1.6-1,2.2C1856.2,815,1855.4,815.3,1854.6,815.3z M1854.6,809.8c-1.2,0-2.3,1-2.3,2.2
				c-0.1,1.3,0.9,2.4,2.2,2.5c0.6,0,1.2-0.2,1.7-0.6c0.5-0.4,0.7-1,0.8-1.6c0-0.6-0.2-1.2-0.6-1.7c-0.4-0.5-1-0.7-1.6-0.8
				C1854.7,809.8,1854.7,809.8,1854.6,809.8z"/>
		</g>
		<g>
			<path fill="#FFFFFF" d="M1854.6,849.8c-0.1,0-0.2,0-0.3,0l0,0c-1.3-0.1-2.6-0.6-3.5-1.6c-0.9-1-1.4-2.3-1.3-3.6
				c0.1-1.3,0.6-2.6,1.6-3.5c1-0.9,2.3-1.4,3.6-1.3c2.8,0.1,4.9,2.5,4.8,5.2c-0.1,1.3-0.6,2.6-1.6,3.5
				C1857,849.3,1855.9,849.8,1854.6,849.8z M1854.4,848.1c0.9,0,1.8-0.3,2.4-0.9c0.7-0.6,1.1-1.4,1.1-2.3c0.1-1.8-1.3-3.4-3.2-3.5
				c-0.9,0-1.8,0.3-2.4,0.9c-0.7,0.6-1.1,1.4-1.1,2.3c0,0.9,0.3,1.8,0.9,2.4C1852.7,847.7,1853.6,848.1,1854.4,848.1L1854.4,848.1z"
				/>
		</g>
		<g>
			<path fill="#FFFFFF" d="M1887.8,849.8c-0.1,0-0.2,0-0.3,0l0,0c-2.8-0.1-4.9-2.5-4.8-5.2c0.1-1.3,0.6-2.6,1.6-3.5
				c1-0.9,2.3-1.4,3.6-1.3c1.3,0.1,2.6,0.6,3.5,1.6c0.9,1,1.4,2.3,1.3,3.6C1892.7,847.7,1890.4,849.8,1887.8,849.8z M1887.6,848.1
				c1.8,0.1,3.4-1.3,3.5-3.2c0-0.9-0.3-1.8-0.9-2.4c-0.6-0.7-1.4-1.1-2.3-1.1c-0.9,0-1.8,0.3-2.4,0.9c-0.7,0.6-1.1,1.4-1.1,2.3
				C1884.3,846.4,1885.8,848,1887.6,848.1L1887.6,848.1z"/>
		</g>
		<g>
			<path fill="#FFFFFF" d="M1872,835.5c-0.1,0-0.2,0-0.4,0l0,0c-1.9-0.1-3.6-0.9-4.8-2.3c-1.3-1.4-1.9-3.2-1.8-5.1
				c0.1-1.9,0.9-3.6,2.3-4.8c1.4-1.3,3.2-1.9,5-1.8c1.9,0.1,3.6,0.9,4.8,2.3c1.3,1.4,1.9,3.2,1.8,5.1c-0.1,1.9-0.9,3.6-2.3,4.8
				C1875.4,834.8,1873.8,835.5,1872,835.5z M1872,823.1c-1.3,0-2.6,0.5-3.6,1.4c-1.1,1-1.7,2.3-1.8,3.7c-0.1,1.4,0.4,2.8,1.4,3.9
				c1,1.1,2.3,1.7,3.7,1.8l0,0c1.4,0.1,2.8-0.4,3.9-1.4c1.1-1,1.7-2.3,1.8-3.7c0.1-1.4-0.4-2.8-1.4-3.9c-1-1.1-2.3-1.7-3.7-1.8
				C1872.2,823.1,1872.1,823.1,1872,823.1z"/>
		</g>
		<g>
			<path fill="#FFFFFF" d="M1857.7,842.4c-0.2,0-0.4-0.1-0.6-0.3c-0.3-0.3-0.3-0.9,0.1-1.2l9.8-8.9c0.3-0.3,0.9-0.3,1.2,0.1
				c0.3,0.3,0.3,0.9-0.1,1.2l-9.8,8.9C1858.1,842.3,1857.9,842.4,1857.7,842.4z"/>
		</g>
		<g>
			<path fill="#FFFFFF" d="M1885,842.4c-0.2,0-0.4-0.1-0.6-0.3l-8.6-8.9c-0.3-0.3-0.3-0.9,0-1.2c0.3-0.3,0.9-0.3,1.2,0l8.6,8.9
				c0.3,0.3,0.3,0.9,0,1.2C1885.5,842.3,1885.3,842.4,1885,842.4z"/>
		</g>
		<g>
			<path fill="#FFFFFF" d="M1872,823.1c-0.5,0-0.8-0.4-0.8-0.8v-10.2c0-0.5,0.4-0.8,0.8-0.8c0.5,0,0.8,0.4,0.8,0.8v10.2
				C1872.9,822.7,1872.5,823.1,1872,823.1z"/>
		</g>
		<g>
			<path fill="#FFFFFF" d="M1875.5,805.6c-0.1,0-0.3-0.1-0.3-0.2c-0.1-0.2-0.1-0.4,0.1-0.6l9.8-6.7c0.2-0.1,0.4-0.1,0.6,0.1
				c0.1,0.2,0.1,0.4-0.1,0.6l-9.8,6.7C1875.7,805.6,1875.6,805.6,1875.5,805.6z"/>
		</g>
		<g>
			<path fill="#FFFFFF" d="M1857.3,812c-0.2,0-0.3-0.1-0.4-0.3c-0.1-0.2,0.1-0.4,0.3-0.5l10.9-2.9c0.2-0.1,0.4,0.1,0.5,0.3
				c0.1,0.2-0.1,0.4-0.3,0.5l-10.9,2.9C1857.4,812,1857.4,812,1857.3,812z"/>
		</g>
		<g>
			<path fill="#FFFFFF" d="M1877.3,848.9c-0.2,0-0.3-0.1-0.4-0.3c-0.1-0.2,0.1-0.4,0.3-0.5l6.8-1.8c0.2-0.1,0.4,0.1,0.5,0.3
				c0.1,0.2-0.1,0.4-0.3,0.5l-6.8,1.8C1877.4,848.9,1877.3,848.9,1877.3,848.9z"/>
		</g>
		<g>
			<path fill="#FFFFFF" d="M1891.7,843.6c-0.2,0-0.3-0.1-0.4-0.3c-0.1-0.2,0.1-0.4,0.3-0.5l10.3-3.2c0.2-0.1,0.4,0.1,0.5,0.3
				c0.1,0.2-0.1,0.4-0.3,0.5l-10.3,3.2C1891.8,843.6,1891.7,843.6,1891.7,843.6z"/>
		</g>
		<g>
			<path fill="#FFFFFF" d="M1850.9,843.3c-0.1,0-0.2,0-0.2-0.1l-4.3-2.9c-0.2-0.1-0.2-0.4-0.1-0.6c0.1-0.2,0.4-0.2,0.6-0.1l4.3,2.9
				c0.2,0.1,0.2,0.4,0.1,0.6C1851.2,843.2,1851,843.3,1850.9,843.3z"/>
		</g>
		<g>
			<path fill="#FFFFFF" d="M1853.2,855.4C1853.2,855.4,1853.1,855.4,1853.2,855.4c-0.3,0-0.4-0.2-0.4-0.4l0.5-6.1
				c0-0.2,0.2-0.4,0.4-0.4c0.2,0,0.4,0.2,0.4,0.4l-0.5,6.1C1853.6,855.2,1853.4,855.4,1853.2,855.4z"/>
		</g>
	</g>
	<g>
		<g>
			<path fill="#FFFFFF" d="M2939.4,1055c14.7,14.7,13.7,31.4,11.7,47.8c-0.2,1.2-0.3,2.4-0.5,3.5c-0.1,0.7-0.2,1.4-0.3,2.1
				c-2,16-3.4,31.2,9.7,44.5l-3.9,3.9c-14.6-14.7-13.5-31.3-11.5-47.6c0.1-1.2,0.3-2.4,0.4-3.6c0.1-0.7,0.2-1.4,0.3-2.1
				c2.1-16.1,3.4-31.3-9.9-44.6c-13.3-13.3-28.5-12-44.7-9.9c-0.7,0.1-1.4,0.2-2.1,0.3c-1.2,0.2-2.4,0.3-3.5,0.5
				c-16.4,2.1-33.1,3.1-47.8-11.7c-0.5-0.5-1-1-1.4-1.5l3.9-3.9c0.5,0.5,0.9,1,1.4,1.5c13.3,13.3,28.5,12,44.7,9.9
				c0.7-0.1,1.4-0.2,2.1-0.3c1.2-0.2,2.4-0.3,3.5-0.5C2907.9,1041.3,2924.6,1040.2,2939.4,1055z"/>
		</g>
		<g>
			<path fill="#FFFFFF" d="M2998.7,1114.3l-3.9,3.9c-13.3-13.1-28.4-11.7-44.5-9.7c-0.7,0.1-1.4,0.2-2.1,0.3
				c-1.2,0.2-2.4,0.3-3.5,0.5c-16.4,2-33.1,3.1-47.8-11.7c-14.8-14.8-13.7-31.5-11.7-47.8c0.2-1.2,0.3-2.4,0.5-3.5
				c0.1-0.7,0.2-1.4,0.3-2.1c2.1-16.1,3.4-31.3-9.9-44.7c-0.5-0.5-1-1-1.5-1.4l3.9-3.9c0.5,0.5,1,0.9,1.5,1.4
				c14.8,14.8,13.7,31.5,11.7,47.8c-0.2,1.2-0.3,2.4-0.5,3.5c-0.1,0.7-0.2,1.4-0.3,2.1c-2.1,16.1-3.4,31.3,9.9,44.7
				c13.3,13.3,28.5,12,44.6,9.9c0.7-0.1,1.4-0.2,2.1-0.3c1.2-0.2,2.4-0.3,3.6-0.4C2967.3,1100.8,2983.9,1099.7,2998.7,1114.3z"/>
		</g>
		<g>
			
				<rect x="2856.5" y="1008.1" transform="matrix(0.707 0.7072 -0.7072 0.707 1558.6577 -1722.4594)" fill="#FFFFFF" width="3.2" height="23.5"/>
		</g>
		<g>
			
				<rect x="2868.5" y="1015.5" transform="matrix(0.7071 0.7071 -0.7071 0.7071 1564.0541 -1729.7092)" fill="#FFFFFF" width="3.2" height="15.3"/>
		</g>
		<g>
			
				<rect x="2974.1" y="1118.9" transform="matrix(0.707 0.7072 -0.7072 0.707 1671.4409 -1773.0966)" fill="#FFFFFF" width="3.2" height="23.5"/>
		</g>
		<g>
			
				<rect x="2962.1" y="1119.7" transform="matrix(0.7071 0.7071 -0.7071 0.7071 1665.1624 -1765.4391)" fill="#FFFFFF" width="3.2" height="15.3"/>
		</g>
		<g>
			
				<rect x="2903.7" y="1051.4" transform="matrix(0.7071 0.7071 -0.7071 0.7071 1602.6644 -1742.9448)" fill="#FFFFFF" width="3.2" height="23.5"/>
		</g>
		<g>
			
				<rect x="2913.6" y="1070.1" transform="matrix(0.7072 0.707 -0.707 0.7072 1616.1948 -1745.1332)" fill="#FFFFFF" width="3.2" height="17.5"/>
		</g>
		<g>
			
				<rect x="2931.3" y="1073.9" transform="matrix(0.7072 0.707 -0.707 0.7072 1622.4973 -1757.2859)" fill="#FFFFFF" width="3.2" height="12.6"/>
		</g>
	</g>
	<g>
		<g>
			<path fill="#FFFFFF" d="M3071,581.2c-0.2,0-0.4,0-0.6-0.1c-10.4-4.3-21.5-10.7-32.2-18.5c-10.8-7.9-20.2-16.6-27.4-25.1
				c-0.3-0.4-0.4-0.9-0.4-1.3c1.7-10.4,7.1-19.7,15.3-26.3c2.3-1.9,4.8-3.5,7.4-4.8c17.8-9.1,40-4.4,52.6,11.2
				c7.6,9.4,10.8,21.7,8.9,33.7c-1.7,10.4-7.1,19.7-15.3,26.3l0,0c-2.3,1.9-4.8,3.5-7.4,4.8C3071.6,581.2,3071.3,581.2,3071,581.2z
				 M3013.8,535.9c6.9,8.2,16,16.5,26.3,24c10.3,7.5,20.9,13.6,30.8,17.8c2.2-1.1,4.2-2.5,6.1-4.1l0,0c7.5-6.1,12.5-14.7,14.1-24.2
				c1.8-11-1.2-22.3-8.2-31c-11.6-14.4-32-18.8-48.4-10.3c-2.4,1.2-4.7,2.7-6.8,4.4C3020.5,518.4,3015.5,526.7,3013.8,535.9z
				 M3078.2,575L3078.2,575L3078.2,575z"/>
		</g>
		<g>
			<path fill="#FFFFFF" d="M3052.6,585.7c-12.6,0-25-5.6-33.3-15.9c-7.6-9.4-10.8-21.7-8.9-33.7c0.1-0.6,0.6-1.2,1.2-1.3
				c0.6-0.2,1.3,0,1.7,0.5c7,8.4,16.3,16.9,26.8,24.6c10.5,7.7,21.4,13.9,31.5,18.1c0.6,0.2,1,0.8,1,1.5c0,0.7-0.3,1.3-0.9,1.6
				C3065.7,584.2,3059.1,585.7,3052.6,585.7z M3013.3,540.4c-0.7,9.8,2.4,19.6,8.6,27.3c10.8,13.4,29.3,18.1,45,11.9
				c-9.4-4.2-19.2-10-28.7-17C3028.6,555.6,3020.1,548,3013.3,540.4z"/>
		</g>
		<g>
			<path fill="#FFFFFF" d="M3012,538.1c-0.5,0-1-0.2-1.3-0.6c-12-14.3-16.1-26.4-11.2-33.1c4.9-6.7,17.6-6.5,34.9,0.6
				c0.6,0.2,1,0.8,1,1.5c0,0.7-0.3,1.3-0.9,1.6c-2.4,1.2-4.7,2.7-6.8,4.4c-7.5,6.1-12.5,14.7-14.1,24.2c-0.1,0.6-0.6,1.2-1.2,1.3
				C3012.3,538.1,3012.2,538.1,3012,538.1z M3011.8,502.9c-4.5,0-7.8,1.2-9.5,3.5c-3.5,4.8-0.1,14.7,8.8,26.2
				c2.3-8.9,7.3-16.9,14.6-22.8l0,0c1.4-1.1,2.8-2.1,4.2-3C3022.9,504.2,3016.6,502.9,3011.8,502.9z"/>
		</g>
		<g>
			<path fill="#FFFFFF" d="M3093,586.6c-6,0-13.7-1.8-22.6-5.5c-0.6-0.2-1-0.8-1-1.5c0-0.7,0.3-1.3,0.9-1.6c2.4-1.2,4.7-2.7,6.8-4.4
				c7.5-6.1,12.5-14.7,14.1-24.2c0.1-0.6,0.6-1.2,1.2-1.3c0.6-0.2,1.3,0,1.7,0.5c12,14.3,16.1,26.4,11.2,33.1
				C3103,585,3098.7,586.6,3093,586.6z M3075,579.3c13.7,5,24.1,5.3,27.7,0.4c3.5-4.8,0.1-14.7-8.8-26.2
				c-2.3,8.9-7.3,16.9-14.6,22.8C3077.8,577.4,3076.4,578.4,3075,579.3z"/>
		</g>
	</g>
	<g>
		<path fill="#FFFFFF" d="M1936.7,863.8v-66l57.1-33l57.1,33v66l-57.1,33L1936.7,863.8z M1940.2,799.8v61.9l53.6,31l53.6-31v-61.9
			l-53.6-31L1940.2,799.8z"/>
	</g>
	<polygon fill="#009688" points="1926.7,862.8 1926.7,798.8 1871.4,766.9 1816,798.8 1816,862.8 1871.4,894.7 	"/>
	<g>
		<path fill="#FFFFFF" d="M2656.2,227.4v-66l57.1-33l57.1,33v66l-57.1,33L2656.2,227.4z M2659.7,163.5v61.9l53.6,31l53.6-31v-61.9
			l-53.6-31L2659.7,163.5z"/>
	</g>
	<polygon fill="#009688" points="1988.2,966.3 1988.2,902.3 1932.8,870.4 1877.5,902.3 1877.5,966.3 1932.8,998.2 	"/>
	<g>
		<path fill="#FFFFFF" d="M2000.1,967.3v-66l57.1-33l57.1,33v66l-57.1,33L2000.1,967.3z M2003.6,903.4v61.9l53.6,31l53.6-31v-61.9
			l-53.6-31L2003.6,903.4z"/>
	</g>
	<g>
		<g>
			<circle fill="#D9F3F9" cx="1994.4" cy="805.6" r="8.8"/>
		</g>
		<g>
			<path fill="#D9F3F9" d="M2005.2,828.9c0,0.1,0,0.2,0,0.3v20.2h-0.6v-17.2C2004.6,831,2004.8,829.9,2005.2,828.9z"/>
			<path fill="#D9F3F9" d="M2026.3,832.2v17.2h-16.9v-20.2c0-1.4-0.2-2.8-0.6-4.1c-0.1-0.2-0.1-0.4-0.2-0.6c1.5-1,3.2-1.6,5.1-1.6
				h3.3C2022.2,823,2026.3,827.1,2026.3,832.2z"/>
		</g>
		<g>
			<circle fill="#D9F3F9" cx="1972.8" cy="814.4" r="7.4"/>
		</g>
		<g>
			<circle fill="#D9F3F9" cx="2015.5" cy="814.4" r="7.4"/>
		</g>
		<g>
			<path fill="#D9F3F9" d="M1975.9,823c1.6,0,3.1,0.4,4.4,1.1c0,0.1-0.1,0.2-0.1,0.3c-0.6,1.5-0.8,3.2-0.8,4.8v20.2h-16v-17.2
				c0-5.1,4.1-9.2,9.2-9.2H1975.9z"/>
			<path fill="#D9F3F9" d="M1985.1,832.2v17.2h-1.6v-20.2c0-0.6,0.1-1.3,0.2-1.9C1984.6,828.7,1985.1,830.4,1985.1,832.2z"/>
		</g>
		<g>
			<path fill="#D9F3F9" d="M2005.3,829.2v20.2h-21.7v-20.2c0-0.6,0.1-1.3,0.2-1.9c0.1-0.3,0.1-0.7,0.3-1l0-0.2
				c1.4-4.5,5.6-7.7,10.4-7.7c5.1,0,9.6,3.7,10.6,8.7c0.1,0.6,0.2,1.2,0.2,1.8C2005.3,829,2005.3,829.1,2005.3,829.2z"/>
		</g>
	</g>
	<g opacity="0.6">
		<g>
			<path fill="#FFFFFF" d="M2986.5,676v-18.4l19.9,16.9l19.9-16.9V676l-19.9,16.9L2986.5,676z M2988.2,661.2v14l18.2,15.5l18.2-15.5
				v-14l-18.2,15.5L2988.2,661.2z"/>
		</g>
		<g>
			<path fill="#FFFFFF" d="M2986.5,705.2v-18.4l19.9,16.9l19.9-16.9v18.4l-19.9,16.9L2986.5,705.2z M2988.2,690.4v14l18.2,15.5
				l18.2-15.5v-14l-18.2,15.5L2988.2,690.4z"/>
		</g>
		<g>
			<path fill="#FFFFFF" d="M2986.5,734.4V716l19.9,16.9l19.9-16.9v18.4l-19.9,16.9L2986.5,734.4z M2988.2,719.7v14l18.2,15.5
				l18.2-15.5v-14l-18.2,15.5L2988.2,719.7z"/>
		</g>
		<g>
			<path fill="#FFFFFF" d="M2986.5,763.6v-18.4l19.9,16.9l19.9-16.9v18.4l-19.9,16.9L2986.5,763.6z M2988.2,748.9v14l18.2,15.5
				l18.2-15.5v-14l-18.2,15.5L2988.2,748.9z"/>
		</g>
		<g>
			<path fill="#FFFFFF" d="M2986.5,792.9v-18.4l19.9,16.9l19.9-16.9v18.4l-19.9,16.9L2986.5,792.9z M2988.2,778.1v14l18.2,15.5
				l18.2-15.5v-14l-18.2,15.5L2988.2,778.1z"/>
		</g>
	</g>
	<g>
		<g>
			<path fill="#FFFFFF" d="M3053.4,1035.5v-14.3l15.5,13.1l15.5-13.1v14.3l-15.5,13.1L3053.4,1035.5z M3054.7,1024v10.8l14.2,12
				l14.2-12V1024l-14.2,12L3054.7,1024z"/>
		</g>
		<g>
			<path fill="#FFFFFF" d="M3053.4,1058.2v-14.3l15.5,13.1l15.5-13.1v14.3l-15.5,13.1L3053.4,1058.2z M3054.7,1046.7v10.8l14.2,12
				l14.2-12v-10.8l-14.2,12L3054.7,1046.7z"/>
		</g>
		<g>
			<path fill="#FFFFFF" d="M3053.4,1080.8v-14.3l15.5,13.1l15.5-13.1v14.3l-15.5,13.1L3053.4,1080.8z M3054.7,1069.4v10.8l14.2,12
				l14.2-12v-10.8l-14.2,12L3054.7,1069.4z"/>
		</g>
		<g>
			<path fill="#FFFFFF" d="M3053.4,1103.5v-14.3l15.5,13.1l15.5-13.1v14.3l-15.5,13.1L3053.4,1103.5z M3054.7,1092.1v10.8l14.2,12
				l14.2-12v-10.8l-14.2,12L3054.7,1092.1z"/>
		</g>
		<g>
			<path fill="#FFFFFF" d="M3053.4,1126.2v-14.3l15.5,13.1l15.5-13.1v14.3l-15.5,13.1L3053.4,1126.2z M3054.7,1114.7v10.8l14.2,12
				l14.2-12v-10.8l-14.2,12L3054.7,1114.7z"/>
		</g>
	</g>
	<g>
		<g>
			<g>
				<path fill="none" stroke="#FFFFFF" stroke-width="3" stroke-miterlimit="10" d="M1917.3,550.3l-37.4,21.6
					c-3.3,1.9-5.3,5.4-5.3,9.1v88.5c0,3.8,2,7.3,5.3,9.1l30.9,17.9"/>
				<g>
					<g>
						<circle fill="none" stroke="#FFFFFF" stroke-width="3" stroke-miterlimit="10" cx="1917" cy="550.5" r="6.3"/>
						<path fill="none" stroke="#FFFFFF" stroke-width="3" stroke-miterlimit="10" d="M1913.4,544.3c-3.4,2-4.6,6.4-2.6,9.8
							c2,3.4,6.4,4.6,9.8,2.6c3.4-2,4.6-6.4,2.6-9.8C1921.2,543.5,1916.8,542.4,1913.4,544.3C1910,546.3,1916.8,542.4,1913.4,544.3z
							 M1919.7,555.3c-2.6,1.5-6,0.6-7.5-2c-1.5-2.6-0.6-6,2-7.5c2.6-1.5,6-0.6,7.5,2C1923.2,550.4,1922.3,553.8,1919.7,555.3
							C1917.1,556.8,1922.3,553.8,1919.7,555.3z"/>
					</g>
				</g>
			</g>
		</g>
		<g>
			<g>
				<path fill="none" stroke="#FFFFFF" stroke-width="3" stroke-miterlimit="10" d="M2049,618.5v-37.4c0-3.8-2-7.3-5.3-9.1
					l-76.6-44.2c-3.3-1.9-7.3-1.9-10.6,0l-19.5,11.3"/>
				<g>
					<g>
						<circle fill="none" stroke="#FFFFFF" stroke-width="3" stroke-miterlimit="10" cx="2049" cy="618.1" r="6.3"/>
						<path fill="none" stroke="#FFFFFF" stroke-width="3" stroke-miterlimit="10" d="M2056.2,618.1c0-3.9-3.2-7.1-7.1-7.1
							c-3.9,0-7.1,3.2-7.1,7.1c0,3.9,3.2,7.1,7.1,7.1C2053,625.3,2056.2,622.1,2056.2,618.1C2056.2,614.2,2056.2,622.1,2056.2,618.1
							z M2043.6,618.1c0-3,2.5-5.5,5.5-5.5s5.5,2.5,5.5,5.5c0,3-2.5,5.5-5.5,5.5S2043.6,621.2,2043.6,618.1
							C2043.6,615.1,2043.6,621.2,2043.6,618.1z"/>
					</g>
				</g>
			</g>
		</g>
		<g>
			<g>
				<path fill="none" stroke="#FFFFFF" stroke-width="3" stroke-miterlimit="10" d="M1933.5,709.6l23,13.3c3.3,1.9,7.3,1.9,10.6,0
					l76.6-44.2c3.3-1.9,5.3-5.4,5.3-9.1v-31.2"/>
				<g>
					<g>
						<circle fill="none" stroke="#FFFFFF" stroke-width="3" stroke-miterlimit="10" cx="1933.8" cy="709.8" r="6.3"/>
						<path fill="none" stroke="#FFFFFF" stroke-width="3" stroke-miterlimit="10" d="M1930.3,716c3.4,2,7.8,0.8,9.8-2.6
							c2-3.4,0.8-7.8-2.6-9.8c-3.4-2-7.8-0.8-9.8,2.6C1925.7,709.6,1926.9,714,1930.3,716C1933.7,718,1926.9,714,1930.3,716z
							 M1936.6,705.1c2.6,1.5,3.5,4.9,2,7.5c-1.5,2.6-4.9,3.5-7.5,2c-2.6-1.5-3.5-4.9-2-7.5C1930.6,704.5,1934,703.6,1936.6,705.1
							C1939.2,706.6,1934,703.6,1936.6,705.1z"/>
					</g>
				</g>
			</g>
		</g>
		<g>
			<g>
				<path fill="#FFFFFF" d="M2014.2,611.8c-1.1-1.9-3.1-3.1-5.3-3.1c-2.1,0-4.1,1.1-5.2,2.9l-3.8,6.4c-2.4,4-6.8,6.5-11.5,6.5h-5.2
					c0-1.1-0.3-2.2-1-3.1c-1-1.4-2.5-2.2-4.2-2.2h-16.7c-6.2,0-10.6,4-14.6,8l-4.5,4.6l-0.8,0.8l-0.8,0.8l-6.4,6.5l-4.7-4.7
					c-0.3-0.3-0.7-0.4-1-0.4c-0.4,0-0.8,0.2-1.1,0.4l-11,11c-0.6,0.6-0.6,1.5,0,2.1l28.8,28.8c0.3,0.3,0.7,0.4,1.1,0.4
					c0.4,0,0.7-0.1,1-0.4l11-11c0.3-0.3,0.4-0.7,0.4-1.1c0-0.1,0-0.3-0.1-0.4l-0.3-0.6c0,0,0,0,0,0l-4.9-4.9l3-3l6.3-6.3
					c1.8-1.8,4.2-2.8,6.7-2.8h7.1c12.4,0,24-6.6,30.4-17.2l7.3-12.2C2015.2,616,2015.3,613.7,2014.2,611.8z M1955.1,665.3l-8.9,8.9
					l-26.7-26.7l1.6-1.6l7.3-7.3L1955.1,665.3z M2012,616.6l-7.3,12.2c-5.9,9.9-16.7,16-28.3,16h-7.1c-3.2,0-6.2,1.2-8.4,3.5
					l-5.8,5.9l-3.4,3.4l-1.5-1.5l-0.2,0.2l-14.3-14.3l0.2-0.2l6-6l0.8-0.8l0.8-0.8l5-5.1c3.8-3.9,7.6-7.3,12.8-7.3h16.7
					c0.9,0,1.7,0.4,2.2,1.1c0.5,0.7,0.7,1.6,0.4,2.4c-0.1,0.2-0.2,0.5-0.4,0.7c-0.5,0.7-1.3,1.1-2.2,1.1l-6,0.1l-9.3,0.2
					c-0.7,0-1.2,0.6-1.2,1.3c0,0.7,0.6,1.2,1.2,1.2c0,0,0,0,0,0l15.3-0.2c1.9,0,3.6-1.1,4.5-2.7h5.9c5.5,0,10.7-2.9,13.6-7.7
					l3.8-6.4c0.7-1.1,1.8-1.8,3.1-1.8c1.3,0,2.4,0.6,3,1.7c0,0,0.1,0.1,0.1,0.1C2012.7,614.1,2012.6,615.5,2012,616.6z"/>
				<path fill="#FFFFFF" d="M1992.2,602.5l-6.9-12l-6.9,12c-2,3.4-2.1,7.2,0.7,10c1.7,1.7,3.9,2.6,6.2,2.6c2.2,0,4.5-0.9,6.2-2.6
					C1994.3,609.8,1994.2,606,1992.2,602.5z M1989.6,611.3c-1.1,1.1-2.4,1.6-3.7,1.8c-1.7,0.2-3.5-0.4-4.9-1.8c-2-2-2.4-5-0.9-7.4
					l4.2-7l1.1-1.8l5.2,8.8C1992,606.3,1991.6,609.4,1989.6,611.3z"/>
				<path fill="#FFFFFF" d="M1980,586.6l-4.5-7.5l-4.5,7.5c-1.2,2.1-0.9,4.7,0.8,6.4c1,1,2.4,1.5,3.7,1.5c1.3,0,2.7-0.5,3.7-1.5
					C1980.9,591.2,1981.2,588.6,1980,586.6z M1978.1,591.8c-0.6,0.6-1.4,1-2.2,1h0c-1.1,0.1-2.1-0.2-2.9-1c-1.2-1.2-1.4-3-0.6-4.4
					l2.5-4.2l0.6-1.1l3.1,5.2C1979.5,588.8,1979.3,590.6,1978.1,591.8z"/>
			</g>
		</g>
	</g>
	<g opacity="0.41">
		<g>
			<g>
				<polygon fill="#FFFFFF" points="2408.6,1143.4 2400.5,1143.4 2400.5,1135.7 2393.3,1135.7 2393.3,1143.4 2385.3,1143.4 
					2385.3,1150.3 2393.3,1150.3 2393.3,1157.9 2400.5,1157.9 2400.5,1150.3 2408.6,1150.3 				"/>
			</g>
		</g>
		<g>
			<path fill="#FFFFFF" d="M2424.5,1180.7h-55.2c-0.7,0-1.2-0.6-1.2-1.2v-65.3c0-0.7,0.6-1.2,1.2-1.2h55.2c0.7,0,1.2,0.6,1.2,1.2
				v65.3C2425.7,1180.2,2425.2,1180.7,2424.5,1180.7z M2370.6,1178.3h52.7v-62.8h-52.7V1178.3z"/>
		</g>
		<g>
			<path fill="#FFFFFF" d="M2418.2,1122.6h-42.5c-0.7,0-1.2-0.6-1.2-1.2c0-0.7,0.6-1.2,1.2-1.2h42.5c0.7,0,1.2,0.6,1.2,1.2
				C2419.4,1122,2418.9,1122.6,2418.2,1122.6z"/>
		</g>
		<g>
			<path fill="#FFFFFF" d="M2418.2,1130.4h-42.5c-0.7,0-1.2-0.6-1.2-1.2s0.6-1.2,1.2-1.2h42.5c0.7,0,1.2,0.6,1.2,1.2
				S2418.9,1130.4,2418.2,1130.4z"/>
		</g>
		<g>
			<path fill="#FFFFFF" d="M2418.2,1165.8h-42.5c-0.7,0-1.2-0.6-1.2-1.2s0.6-1.2,1.2-1.2h42.5c0.7,0,1.2,0.6,1.2,1.2
				S2418.9,1165.8,2418.2,1165.8z"/>
		</g>
		<g>
			<path fill="#FFFFFF" d="M2418.2,1173.6h-42.5c-0.7,0-1.2-0.6-1.2-1.2c0-0.7,0.6-1.2,1.2-1.2h42.5c0.7,0,1.2,0.6,1.2,1.2
				C2419.4,1173,2418.9,1173.6,2418.2,1173.6z"/>
		</g>
	</g>
	<g>
		<path opacity="0.39" fill="#D9F3F9" d="M2057.2,901.8l-25.9,15v0c0,18.5,9.9,35.6,25.9,44.9l0,0c16-9.3,25.9-26.4,25.9-44.9v0
			L2057.2,901.8z"/>
		<g>
			<path fill="#FFFFFF" d="M2054.7,943.2L2054.7,943.2c-0.7,0-1.3-0.3-1.8-0.7l-7.3-7.3c-1-1-1-2.6,0-3.6c1-1,2.6-1,3.6,0l5.5,5.5
				l14.7-14.7c1-1,2.6-1,3.6,0c1,1,1,2.6,0,3.6l-16.5,16.5C2056,943,2055.4,943.2,2054.7,943.2z"/>
		</g>
	</g>
	<path fill="#D9F3F9" d="M2308.9,304.2l-9.6-15.3c-0.3-0.5-1-0.6-1.4-0.3l-12.1,7.6c-0.7,0.4-1.6-0.1-1.6-0.9V282c0-0.6-0.5-1-1-1
		h-18.4c-0.6,0-1,0.5-1,1v12.6c0,0.8-0.9,1.3-1.6,0.9l-10.6-6.8c-0.5-0.3-1.1-0.2-1.4,0.3l-10.8,14.9c-0.4,0.5-0.2,1.2,0.3,1.5
		l14.3,9.2c0.6,0.4,0.6,1.4,0,1.8l-13.7,8.6c-0.5,0.3-0.6,1-0.3,1.5l10.6,15.7c0.3,0.5,1,0.6,1.4,0.3l10.2-6.6
		c0.7-0.5,1.6,0,1.6,0.9v12c0,0.6,0.5,1,1,1h18.4c0.6,0,1-0.5,1-1v-12.9c0-0.8,0.9-1.3,1.6-0.9l11.6,7.4c0.5,0.3,1.1,0.2,1.4-0.3
		l10.1-15.4c0.3-0.5,0.2-1.1-0.3-1.5l-13.8-8.9c-0.6-0.4-0.6-1.3,0-1.8l13.9-9C2309,305.4,2309.2,304.7,2308.9,304.2z"/>
	<g>
		<g>
			<path fill="#FFFFFF" d="M3076.8,845.6c-4-4-9.3-6.2-14.9-6.2c-5.6,0-10.9,2.2-14.9,6.2l-10.2,10.2l-2.3,2.3l-27.5,27.5
				l-10.2,10.2c-4,4-6.2,9.3-6.2,14.9c0,2.8,0.5,5.5,1.6,8.1c1.1,2.5,2.6,4.8,4.6,6.8c4.1,4.1,9.5,6.2,14.9,6.2
				c5.4,0,10.8-2.1,14.9-6.2l10.2-10.2l27.5-27.5l2.3-2.3l10.2-10.2c4-4,6.2-9.3,6.2-14.9C3083,854.9,3080.8,849.6,3076.8,845.6z
				 M3074.5,873.1l-10.2,10.2l-2.3,2.3l-37.7,37.7c-6.9,6.9-18.2,6.9-25.2,0c-6.9-6.9-6.9-18.2,0-25.2l10.2-10.2l2.3-2.3l25.2-25.2
				l2.3-2.3l10.2-10.2c3.4-3.4,7.8-5.2,12.6-5.2c4.8,0,9.2,1.8,12.6,5.2C3081.4,854.8,3081.4,866.1,3074.5,873.1z"/>
		</g>
		<g>
			<path fill="#FFFFFF" d="M3076.8,895.8l-10.2-10.2l-27.5-27.5l-2.3-2.3l-10.2-10.2c-4-4-9.3-6.2-14.9-6.2
				c-5.6,0-10.9,2.2-14.9,6.2c-4,4-6.2,9.3-6.2,14.9c0,5.6,2.2,10.9,6.2,14.9l10.2,10.2l2.3,2.3l25.2,25.2l2.3,2.3l10.2,10.2
				c4.1,4.1,9.5,6.2,14.9,6.2c2.7,0,5.4-0.5,8-1.6c2.5-1,4.9-2.6,7-4.6c4-4,6.2-9.3,6.2-14.9C3083,905.1,3080.8,899.8,3076.8,895.8z
				 M3074.5,923.3c-6.9,6.9-18.2,6.9-25.2,0l-10.2-10.2l-2.3-2.3l-25.2-25.2l-12.5-12.5c-3.4-3.4-5.2-7.8-5.2-12.6
				c0-4.8,1.8-9.2,5.2-12.6c3.4-3.4,7.8-5.2,12.6-5.2c4.8,0,9.2,1.8,12.6,5.2l10.2,10.2l2.3,2.3l25.2,25.2l2.3,2.3l10.2,10.2
				C3081.4,905,3081.4,916.3,3074.5,923.3z"/>
		</g>
		<g>
			<g>
				<path fill="#FFFFFF" d="M3070.3,860.6c1.7,0,1.7-2.6,0-2.6C3068.6,858,3068.6,860.6,3070.3,860.6L3070.3,860.6z"/>
			</g>
		</g>
		<g>
			<g>
				<path fill="#FFFFFF" d="M3061.3,853.6c1.7,0,1.7-2.6,0-2.6C3059.7,850.9,3059.7,853.6,3061.3,853.6L3061.3,853.6z"/>
			</g>
		</g>
		<g>
			<g>
				<path fill="#FFFFFF" d="M3059.9,867.1c1.7,0,1.7-2.6,0-2.6C3058.3,864.4,3058.2,867.1,3059.9,867.1L3059.9,867.1z"/>
			</g>
		</g>
		<g>
			<g>
				<path fill="#FFFFFF" d="M3054,858.3c1.7,0,1.7-2.6,0-2.6C3052.3,855.7,3052.3,858.3,3054,858.3L3054,858.3z"/>
			</g>
		</g>
		<g>
			<g>
				<path fill="#FFFFFF" d="M3069.8,868.7c1.7,0,1.7-2.6,0-2.6C3068.1,866.1,3068.1,868.7,3069.8,868.7L3069.8,868.7z"/>
			</g>
		</g>
		<g>
			<g>
				<path fill="#FFFFFF" d="M3072.9,907c1.7,0,1.7-2.6,0-2.6C3071.2,904.3,3071.2,907,3072.9,907L3072.9,907z"/>
			</g>
		</g>
		<g>
			<g>
				<path fill="#FFFFFF" d="M3065.6,903.3c1.7,0,1.7-2.6,0-2.6C3063.9,900.7,3063.9,903.3,3065.6,903.3L3065.6,903.3z"/>
			</g>
		</g>
		<g>
			<g>
				<path fill="#FFFFFF" d="M3058.3,920.7c1.7,0,1.7-2.6,0-2.6C3056.6,918.1,3056.6,920.7,3058.3,920.7L3058.3,920.7z"/>
			</g>
		</g>
		<g>
			<g>
				<path fill="#FFFFFF" d="M3049.5,915.1c1.7,0,1.7-2.6,0-2.6C3047.9,912.5,3047.9,915.1,3049.5,915.1L3049.5,915.1z"/>
			</g>
		</g>
		<g>
			<g>
				<path fill="#FFFFFF" d="M3062.5,915.9c1.7,0,1.7-2.6,0-2.6C3060.8,913.3,3060.8,915.9,3062.5,915.9L3062.5,915.9z"/>
			</g>
		</g>
		<g>
			<g>
				<path fill="#FFFFFF" d="M3017.5,914.5c1.7,0,1.7-2.6,0-2.6C3015.8,911.9,3015.8,914.5,3017.5,914.5L3017.5,914.5z"/>
			</g>
		</g>
		<g>
			<g>
				<path fill="#FFFFFF" d="M3008.8,904.4c1.7,0,1.7-2.6,0-2.6C3007.1,901.8,3007.1,904.4,3008.8,904.4L3008.8,904.4z"/>
			</g>
		</g>
		<g>
			<g>
				<path fill="#FFFFFF" d="M3004.9,918.5c1.7,0,1.7-2.6,0-2.6C3003.2,915.9,3003.2,918.5,3004.9,918.5L3004.9,918.5z"/>
			</g>
		</g>
		<g>
			<g>
				<path fill="#FFFFFF" d="M3020.3,908.4c1.7,0,1.7-2.6,0-2.6C3018.6,905.7,3018.6,908.4,3020.3,908.4L3020.3,908.4z"/>
			</g>
		</g>
		<g>
			<g>
				<path fill="#FFFFFF" d="M3000.4,908.9c1.7,0,1.7-2.6,0-2.6C2998.7,906.3,2998.7,908.9,3000.4,908.9L3000.4,908.9z"/>
			</g>
		</g>
		<g>
			<g>
				<path fill="#FFFFFF" d="M3011.6,867.6c1.7,0,1.7-2.6,0-2.6C3009.9,865,3009.9,867.6,3011.6,867.6L3011.6,867.6z"/>
			</g>
		</g>
		<g>
			<g>
				<path fill="#FFFFFF" d="M3018.1,858.1c1.7,0,1.7-2.6,0-2.6C3016.4,855.4,3016.4,858.1,3018.1,858.1L3018.1,858.1z"/>
			</g>
		</g>
		<g>
			<g>
				<path fill="#FFFFFF" d="M3007.7,853.6c1.7,0,1.7-2.6,0-2.6C3006,850.9,3006,853.6,3007.7,853.6L3007.7,853.6z"/>
			</g>
		</g>
		<g>
			<g>
				<path fill="#FFFFFF" d="M2997.6,863.4c1.7,0,1.7-2.6,0-2.6C2995.9,860.8,2995.9,863.4,2997.6,863.4L2997.6,863.4z"/>
			</g>
		</g>
		<g>
			<g>
				<path fill="#FFFFFF" d="M3020.3,865.1c1.7,0,1.7-2.6,0-2.6C3018.6,862.5,3018.6,865.1,3020.3,865.1L3020.3,865.1z"/>
			</g>
		</g>
	</g>
	<g>
		<g>
			<path fill="#D9F3F9" d="M1943.7,926.3v18h-17.2c-3.8,0-6.8-3.1-6.8-6.8V921h18.7C1941.3,921,1943.7,923.4,1943.7,926.3z"/>
			<path fill="#D9F3F9" d="M1971.5,918.8v18.7c0,3.8-3.1,6.8-6.8,6.8h-3.7v7.1l-12.6-7.1h-1.5v-18c0-4.7-3.8-8.6-8.6-8.6h-18.6
				c0.5-3.3,3.3-5.8,6.7-5.8h38.2C1968.5,912,1971.5,915,1971.5,918.8z"/>
			<path fill="#D9F3F9" d="M1943.7,926.3v19c0,2.9-2.4,5.3-5.3,5.3h-22.8l-10.8,6v-6h-5.4c-2.9,0-5.3-2.4-5.3-5.3v-19
				c0-2.9,2.4-5.3,5.3-5.3h38.9C1941.3,921,1943.7,923.4,1943.7,926.3z"/>
		</g>
	</g>
	<g>
		<polygon fill="#FFFFFF" points="2648.3,1123.7 2641.1,1102.6 2648.5,1090.3 2652.5,1101.9 2679.8,1056.4 2692.7,1064.2 
			2665.5,1109.7 2667.3,1109.4 2677.6,1107.7 2670.2,1120 		"/>
		<polygon fill="#FFFFFF" points="2728.5,1038 2735.7,1059 2728.3,1071.3 2724.3,1059.7 2697,1105.2 2684,1097.4 2711.3,1051.9 
			2709.5,1052.2 2699.2,1053.9 2706.6,1041.6 		"/>
	</g>
	<g opacity="9.000000e-002">
		<g>
			
				<radialGradient id="SVGID_1_" cx="1380.454" cy="331.3861" r="294.9933" gradientTransform="matrix(-0.9426 -0.3332 0.3331 -0.9429 3523.531 2036.5013)" gradientUnits="userSpaceOnUse">
				<stop  offset="0" style="stop-color:#C1E6CD"/>
				<stop  offset="1" style="stop-color:#71BFC7"/>
			</radialGradient>
			<path fill="url(#SVGID_1_)" d="M2184.3,1033.9c1.1,0.4,2.1,1.2,2.7,2.3c1.3,2.4,0.4,5.5-2,6.8l-131.4,70.5
				c-2.4,1.3-5.5,0.4-6.8-2c-1.3-2.4-0.4-5.5,2-6.8l131.4-70.5C2181.5,1033.5,2183,1033.5,2184.3,1033.9z"/>
		</g>
		<g>
			
				<radialGradient id="SVGID_2_" cx="2979.7834" cy="1359.3761" r="80.563" gradientTransform="matrix(0.9997 0 0 1 0.7888 0)" gradientUnits="userSpaceOnUse">
				<stop  offset="0" style="stop-color:#C1E6CD"/>
				<stop  offset="1" style="stop-color:#71BFC7"/>
			</radialGradient>
			<path fill="url(#SVGID_2_)" d="M3090.5,1328c0,0.2,0,0.5-0.1,0.7c0,0.1,0,0.2-0.1,0.3c0,0.2-0.1,0.4-0.2,0.6c0,0.1,0,0.1-0.1,0.2
				c0,0,0,0.1-0.1,0.2c0,0.1-0.1,0.2-0.2,0.3c0,0.1-0.1,0.2-0.2,0.3c0,0.1-0.1,0.2-0.1,0.2c0,0,0,0,0,0c0,0.1-0.1,0.1-0.1,0.2
				l-1.1,1.7l-35.8,55.4h-11.9l35.2-54.5l3.2-5l2.2-3.4l0.1-0.2c0.9-1.2,2.1-2,3.5-2.1l0.2,0c0.1,0,0.2,0,0.4,0
				c0.6,0,1.1,0.1,1.7,0.3c0.2,0.1,0.4,0.2,0.6,0.3c0.1,0.1,0.3,0.1,0.4,0.2c0.1,0,0.1,0.1,0.2,0.2c0.1,0.1,0.2,0.1,0.3,0.2l0.2,0.2
				l0.1,0.1c0,0,0,0,0,0c0.1,0.1,0.2,0.2,0.3,0.3c0.1,0.1,0.2,0.3,0.3,0.4c0,0.1,0.1,0.1,0.1,0.2c0.2,0.2,0.3,0.5,0.4,0.7
				c0.1,0.1,0.1,0.2,0.1,0.4c0,0.1,0.1,0.1,0.1,0.2c0,0.1,0,0.2,0.1,0.2c0,0,0,0.1,0,0.2c0,0,0,0.1,0,0.1c0,0.1,0,0.2,0.1,0.3
				c0,0.1,0,0.2,0,0.2C3090.5,1327.7,3090.5,1327.8,3090.5,1328z"/>
		</g>
		<g>
			
				<radialGradient id="SVGID_3_" cx="-47.1413" cy="289.7675" r="899.0929" gradientTransform="matrix(-0.9426 -0.3332 0.3331 -0.9429 3523.531 2036.5013)" gradientUnits="userSpaceOnUse">
				<stop  offset="0" style="stop-color:#C1E6CD"/>
				<stop  offset="1" style="stop-color:#71BFC7"/>
			</radialGradient>
			<path fill="url(#SVGID_3_)" d="M3087.2,1323.2c1.8,0.6,3.2,2.3,3.3,4.4c0.2,2.8-1.9,5.1-4.6,5.3l-344.8,24.9
				c-2.8,0.2-5.1-1.9-5.3-4.6c-0.2-2.8,1.9-5.1,4.6-5.3l344.8-24.9C3085.9,1322.9,3086.6,1323,3087.2,1323.2z"/>
		</g>
		<g>
			
				<radialGradient id="SVGID_4_" cx="3012.6973" cy="1152.7516" r="219.8919" gradientTransform="matrix(0.9997 0 0 1 0.7888 0)" gradientUnits="userSpaceOnUse">
				<stop  offset="0" style="stop-color:#C1E6CD"/>
				<stop  offset="1" style="stop-color:#71BFC7"/>
			</radialGradient>
			<path fill="url(#SVGID_4_)" d="M3144.5,1241.8l-49.6,80.4l49.6-3.6v10l-56.1,4.1l-2.2,0.2c-0.1,0-0.2,0-0.2,0c-0.1,0-0.3,0-0.4,0
				c-0.2,0-0.5,0-0.7-0.1c-0.1,0-0.1,0-0.2,0c-0.3,0-0.6-0.1-0.8-0.2c-0.2-0.1-0.4-0.2-0.6-0.3c-0.2-0.1-0.4-0.2-0.5-0.3
				c-0.2-0.1-0.4-0.3-0.5-0.4c-0.3-0.3-0.6-0.6-0.8-1c-1-1.6-1-3.6,0-5.2l0.1-0.2l1.2-2l1.9-3.1l54.4-88.2l5.5-9v12.3"/>
		</g>
		<g>
			
				<radialGradient id="SVGID_5_" cx="-47.1266" cy="289.6551" r="899.1234" gradientTransform="matrix(-0.9426 -0.3332 0.3331 -0.9429 3523.531 2036.5013)" gradientUnits="userSpaceOnUse">
				<stop  offset="0" style="stop-color:#C1E6CD"/>
				<stop  offset="1" style="stop-color:#71BFC7"/>
			</radialGradient>
			<path fill="url(#SVGID_5_)" d="M2708.3,729.3c2.3,0.8,3.7,3.1,3.3,5.6c-0.5,2.7-3.1,4.5-5.8,4.1l-282.6-49
				c-2.7-0.5-4.5-3.1-4.1-5.8c0.5-2.7,3.1-4.5,5.8-4.1l282.6,49C2707.8,729.2,2708.1,729.2,2708.3,729.3z"/>
		</g>
		<g>
			
				<radialGradient id="SVGID_6_" cx="-47.0145" cy="289.7452" r="899.0594" gradientTransform="matrix(-0.9426 -0.3332 0.3331 -0.9429 3523.531 2036.5013)" gradientUnits="userSpaceOnUse">
				<stop  offset="0" style="stop-color:#C1E6CD"/>
				<stop  offset="1" style="stop-color:#71BFC7"/>
			</radialGradient>
			<path fill="url(#SVGID_6_)" d="M2733.4,386.2c0.7,0.3,1.4,0.7,1.9,1.3c1.9,2,1.8,5.2-0.2,7.1l-307.6,294.1
				c-2,1.9-5.2,1.8-7.1-0.2c-1.9-2-1.8-5.2,0.2-7.1l307.6-294.1C2729.7,386,2731.7,385.6,2733.4,386.2z"/>
		</g>
		<g>
			
				<radialGradient id="SVGID_7_" cx="-46.9209" cy="289.7506" r="898.9937" gradientTransform="matrix(-0.9426 -0.3332 0.3331 -0.9429 3523.531 2036.5013)" gradientUnits="userSpaceOnUse">
				<stop  offset="0" style="stop-color:#C1E6CD"/>
				<stop  offset="1" style="stop-color:#71BFC7"/>
			</radialGradient>
			<path fill="url(#SVGID_7_)" d="M2425.8,680.3c0.4,0.1,0.8,0.3,1.2,0.6c2.3,1.6,2.9,4.7,1.3,6.9l-241.5,353.6
				c-1.6,2.3-4.7,2.9-6.9,1.3c-2.3-1.6-2.9-4.7-1.3-6.9L2420,682.2C2421.3,680.3,2423.7,679.6,2425.8,680.3z"/>
		</g>
		<g>
			
				<radialGradient id="SVGID_8_" cx="-47.1626" cy="289.7992" r="899.1086" gradientTransform="matrix(-0.9426 -0.3332 0.3331 -0.9429 3523.531 2036.5013)" gradientUnits="userSpaceOnUse">
				<stop  offset="0" style="stop-color:#C1E6CD"/>
				<stop  offset="1" style="stop-color:#71BFC7"/>
			</radialGradient>
			<path fill="url(#SVGID_8_)" d="M2425.8,680.3c0.7,0.2,1.3,0.6,1.8,1.1l661.4,642.9c2,1.9,2,5.1,0.1,7.1c-1.9,2-5.1,2-7.1,0.1
				l-661.4-642.9c-2-1.9-2-5.1-0.1-7.1C2421.9,680.1,2424,679.7,2425.8,680.3z"/>
		</g>
		
			<radialGradient id="SVGID_9_" cx="3487.8931" cy="1209.9366" r="548.4973" gradientTransform="matrix(0.9997 0 0 1 0.7888 0)" gradientUnits="userSpaceOnUse">
			<stop  offset="0" style="stop-color:#C1E6CD"/>
			<stop  offset="1" style="stop-color:#71BFC7"/>
		</radialGradient>
		<path fill="url(#SVGID_9_)" d="M3144.5,1241.8v146.3h-151c-9.2-14.1-15.2-30.3-17.2-47.3c-0.4-3.3-0.6-6.6-0.7-10
			c-0.4-13.1,1.6-26.5,6.2-39.6c4.9-13.8,12.2-26,21.4-36.3c2.2-2.5,4.5-4.9,7-7.2c29-27.2,71.8-37.7,111.9-23.5
			c5.9,2.1,11.5,4.6,16.8,7.6c1.9,1,3.7,2.1,5.5,3.3"/>
		
			<radialGradient id="SVGID_10_" cx="2043.9808" cy="787.5109" r="712.9458" gradientTransform="matrix(-0.9426 -0.3332 0.3331 -0.9429 3523.531 2036.5013)" gradientUnits="userSpaceOnUse">
			<stop  offset="0" style="stop-color:#C1E6CD"/>
			<stop  offset="1" style="stop-color:#71BFC7"/>
		</radialGradient>
		<path fill="url(#SVGID_10_)" d="M2320.4,648.4c20.2-57.3,83-87.3,140.3-67.1c57.3,20.2,87.3,83.1,67,140.4
			c-20.2,57.3-83.1,87.3-140.3,67.1C2330.2,768.5,2300.2,705.6,2320.4,648.4z"/>
		
			<radialGradient id="SVGID_11_" cx="1380.5723" cy="917.673" r="225.6446" gradientTransform="matrix(-0.9426 -0.3332 0.3331 -0.9429 3523.531 2036.5013)" gradientUnits="userSpaceOnUse">
			<stop  offset="0" style="stop-color:#C1E6CD"/>
			<stop  offset="1" style="stop-color:#71BFC7"/>
		</radialGradient>
		<path fill="url(#SVGID_11_)" d="M2673.9,722.4c6.4-18.1,26.3-27.6,44.4-21.2c18.1,6.4,27.6,26.3,21.2,44.4s-26.3,27.6-44.4,21.2
			C2677,760.5,2667.5,740.6,2673.9,722.4z"/>
		
			<radialGradient id="SVGID_12_" cx="1142.2411" cy="345.6364" r="225.6446" gradientTransform="matrix(-0.9426 -0.3332 0.3331 -0.9429 3523.531 2036.5013)" gradientUnits="userSpaceOnUse">
			<stop  offset="0" style="stop-color:#C1E6CD"/>
			<stop  offset="1" style="stop-color:#71BFC7"/>
		</radialGradient>
		<path fill="url(#SVGID_12_)" d="M2708,1341.2c6.4-18.1,26.3-27.6,44.4-21.2c18.1,6.4,27.6,26.3,21.2,44.4
			c-6.4,18.1-26.3,27.6-44.4,21.2C2711.1,1379.2,2701.6,1359.4,2708,1341.2z"/>
		
			<radialGradient id="SVGID_13_" cx="1873.7941" cy="345.6116" r="225.6452" gradientTransform="matrix(-0.9426 -0.3332 0.3331 -0.9429 3523.531 2036.5013)" gradientUnits="userSpaceOnUse">
			<stop  offset="0" style="stop-color:#C1E6CD"/>
			<stop  offset="1" style="stop-color:#71BFC7"/>
		</radialGradient>
		<path fill="url(#SVGID_13_)" d="M2018.4,1097.5c6.4-18.1,26.3-27.6,44.4-21.2c18.1,6.4,27.6,26.3,21.2,44.4
			c-6.4,18.1-26.3,27.6-44.4,21.2C2021.5,1135.5,2012,1115.6,2018.4,1097.5z"/>
		
			<radialGradient id="SVGID_14_" cx="1577.6881" cy="1226.4998" r="361.9464" gradientTransform="matrix(-0.9426 -0.3332 0.3331 -0.9429 3523.531 2036.5013)" gradientUnits="userSpaceOnUse">
			<stop  offset="0" style="stop-color:#C1E6CD"/>
			<stop  offset="1" style="stop-color:#71BFC7"/>
		</radialGradient>
		<path fill="url(#SVGID_14_)" d="M2679.1,372.3c10.3-29.1,42.2-44.3,71.2-34c29.1,10.3,44.3,42.2,34,71.3
			c-10.3,29.1-42.2,44.3-71.2,34C2684.1,433.3,2668.8,401.4,2679.1,372.3z"/>
		
			<radialGradient id="SVGID_15_" cx="1879.8193" cy="432.8471" r="361.9463" gradientTransform="matrix(-0.9426 -0.3332 0.3331 -0.9429 3523.531 2036.5013)" gradientUnits="userSpaceOnUse">
			<stop  offset="0" style="stop-color:#C1E6CD"/>
			<stop  offset="1" style="stop-color:#71BFC7"/>
		</radialGradient>
		<path fill="url(#SVGID_15_)" d="M2130,1020c10.3-29.1,42.2-44.3,71.2-34c29.1,10.3,44.3,42.2,34,71.3
			c-10.3,29.1-42.2,44.3-71.2,34C2134.9,1081,2119.7,1049.1,2130,1020z"/>
	</g>
</g>
</svg>
